<svg version="1.1" id="Layer_1" xmlns="http://www.w3.org/2000/svg" xmlns:xlink="http://www.w3.org/1999/xlink" x="0px" y="0px"
	 width="100%" viewBox="0 0 512 512" enable-background="new 0 0 512 512" xml:space="preserve">
<path fill="orangered" opacity="1.000000" stroke="none" 
	d="
M513.000000,401.531372 
	C510.267639,414.834625 506.002350,427.059906 497.633484,437.387695 
	C477.336884,462.435181 451.032990,472.810272 419.588409,465.829468 
	C388.131927,458.845978 368.017578,438.397095 360.950226,407.003906 
	C354.192871,376.987823 363.839966,351.561584 386.845123,331.215576 
	C388.193878,330.022736 389.476227,328.627716 391.891907,328.155823 
	C395.033783,332.250702 396.380066,337.505127 399.064545,341.995667 
	C403.680481,349.717133 403.684723,355.464386 397.549103,363.739166 
	C377.245911,391.120972 392.991577,430.471375 426.548889,437.167114 
	C455.880707,443.019745 478.918274,423.355255 483.430328,397.636963 
	C487.781982,372.832977 468.934692,347.076508 443.604462,343.513336 
	C440.002625,343.006653 436.285675,343.274780 432.621857,343.270142 
	C430.737640,343.267761 428.915802,343.334625 427.948486,341.257874 
	C424.168671,333.142700 420.379120,325.032074 416.556671,316.841614 
	C420.284424,314.209900 424.211365,314.050781 427.905914,313.788452 
	C470.432678,310.768860 503.262726,335.525452 512.431763,377.356659 
	C512.502014,377.677277 512.659302,377.978821 512.888000,378.644653 
	C513.000000,386.354248 513.000000,393.708496 513.000000,401.531372 
z"/>
<path fill="orangered" opacity="1.000000" stroke="none" 
	d="
M1.000000,377.468628 
	C3.105256,373.687042 3.310386,369.752655 4.451638,366.131622 
	C13.813794,336.426788 44.166378,313.091339 78.145569,313.373322 
	C110.769638,313.644073 141.881363,335.392639 151.557159,367.861908 
	C152.300568,370.356598 153.506577,372.822327 152.726791,376.028015 
	C143.487411,376.713684 134.203979,376.449036 124.929085,376.205994 
	C122.577637,376.144379 122.437378,373.789703 121.734123,372.199554 
	C108.772034,342.890656 73.520294,333.880951 48.092293,353.399902 
	C33.114250,364.897217 26.615374,386.027527 32.346790,404.594299 
	C38.138901,423.357666 55.165081,436.884552 74.238533,437.876251 
	C95.397171,438.976410 112.774963,428.634857 121.434792,409.309418 
	C123.092331,405.610382 125.100624,404.469849 128.928162,404.591980 
	C136.868439,404.845398 144.822449,404.668457 153.271606,404.668457 
	C152.596405,412.411194 150.133102,418.754578 147.009354,424.744904 
	C132.657440,452.266968 109.570442,467.158417 78.832329,467.836487 
	C40.767818,468.676178 10.234285,442.219482 2.589672,408.021301 
	C2.191313,406.239288 1.669395,404.484863 1.102501,402.358795 
	C1.000000,393.979095 1.000000,385.958191 1.000000,377.468628 
z"/>
<path fill="orangered" opacity="1.000000" stroke="none" 
	d="
M164.362183,381.398132 
	C163.649353,364.856201 157.453171,350.686646 147.894485,337.912170 
	C119.781883,300.341766 66.892540,291.522095 28.465963,318.399689 
	C21.576048,323.218903 14.644972,321.964325 7.492019,322.163300 
	C5.691514,322.213409 4.852396,320.989319 4.767615,319.245392 
	C4.751431,318.912506 4.710868,318.578400 4.725605,318.246826 
	C4.932002,313.602570 3.050298,308.167938 5.442035,304.513245 
	C8.065595,300.504272 13.759068,303.206268 18.076590,302.854218 
	C20.851704,302.627960 22.197330,301.242767 23.504848,299.183380 
	C29.665911,289.479370 35.982368,279.872681 42.039967,270.105103 
	C43.907612,267.093628 46.056553,265.770386 49.694656,265.783966 
	C79.355591,265.894806 109.017281,265.785889 138.678528,265.847321 
	C144.582031,265.859528 150.018936,268.348907 155.621368,269.836517 
	C169.770401,273.593536 183.836151,277.663605 197.942245,281.583099 
	C204.110901,283.297058 204.185471,283.300659 201.360458,289.285034 
	C192.118149,308.863342 182.813629,328.412292 173.550903,347.980957 
	C167.300049,361.186707 171.288666,375.405945 183.155090,382.330109 
	C196.354675,390.032196 212.662125,385.644653 219.409119,371.854523 
	C232.218872,345.672882 244.546860,319.255524 257.071259,292.934326 
	C259.575958,287.670471 262.305695,282.497711 264.512299,277.111145 
	C269.957703,263.818329 265.712616,251.421661 253.481140,243.930908 
	C251.918732,242.974045 249.073242,242.461014 250.313095,239.759232 
	C251.810669,236.495850 251.488068,231.806198 256.341553,230.839417 
	C257.626862,230.583405 258.999664,230.750885 260.332306,230.750839 
	C288.660645,230.750031 316.988983,230.762894 345.317291,230.735580 
	C347.448364,230.733521 349.641083,231.135162 352.566101,229.860428 
	C348.911743,222.055115 345.397980,214.244705 341.591827,206.579468 
	C340.182831,203.741959 337.324524,206.106476 334.683044,205.428329 
	C334.544495,200.857895 335.195312,195.970627 332.404724,191.180786 
	C337.329987,188.923828 341.873291,187.154938 346.993896,187.783905 
	C350.680389,188.236679 352.035095,191.219269 353.395050,194.133530 
	C364.312012,217.527740 375.259155,240.907883 386.158325,264.310394 
	C405.493744,305.827148 424.715393,347.397400 444.238647,388.825562 
	C446.493652,393.610687 445.511017,395.388062 440.951630,397.217621 
	C431.743530,400.912628 433.080780,402.555145 428.469269,392.621338 
	C414.233398,361.955475 399.932220,331.319977 385.645966,300.677521 
	C384.814240,298.893555 383.889740,297.152893 382.917847,295.211121 
	C382.301117,295.658691 381.700653,295.858612 381.615356,296.190887 
	C379.510406,304.388672 373.958588,305.659637 366.198853,305.487457 
	C342.881195,304.970123 319.544556,305.283081 296.215546,305.348450 
	C294.377991,305.353607 292.179474,304.488007 290.593933,306.825470 
	C292.050293,309.444366 294.607544,308.618805 296.714355,308.623535 
	C320.543335,308.676971 344.372528,308.644592 368.201630,308.668304 
	C370.172638,308.670258 372.198212,308.331116 374.100220,309.157349 
	C373.950043,314.761993 372.542908,316.299347 367.262451,316.311310 
	C351.432007,316.347260 335.601227,316.287659 319.771118,316.367218 
	C317.994385,316.376160 315.696259,315.420288 313.983704,319.203430 
	C332.736511,319.203430 350.900818,319.203430 368.650818,319.203430 
	C369.656036,322.237518 368.523987,323.644592 367.845795,325.105469 
	C357.186310,348.067047 346.448242,370.992249 335.854980,393.984222 
	C334.418335,397.102356 332.604523,398.388184 329.048004,398.383911 
	C249.895432,398.288818 170.742691,398.284607 91.590118,398.384369 
	C87.219437,398.389862 85.759964,396.922272 85.780975,392.602539 
	C85.828514,382.835876 85.653687,382.811798 95.481232,382.803497 
	C116.310844,382.785889 137.140549,382.816345 157.970016,382.760437 
	C160.058685,382.754822 162.332886,383.427063 164.362183,381.398132 
z"/>
<path fill="orangered" opacity="1.000000" stroke="none" 
	d="
M257.588013,279.428833 
	C243.660233,308.817444 229.951904,337.889709 216.136414,366.910980 
	C209.642532,380.552216 195.715759,384.829773 184.349548,376.857513 
	C177.653824,372.161102 174.261887,363.110870 176.630402,355.235626 
	C179.329224,346.262115 184.239304,338.233185 188.125443,329.769653 
	C195.075363,314.633698 202.398575,299.669220 209.543854,284.622681 
	C210.172394,283.299103 210.639725,281.898956 211.268494,280.316498 
	C207.227493,278.011200 202.913025,277.440582 198.821243,276.287781 
	C182.014740,271.552734 165.129684,267.090942 148.365417,262.212860 
	C124.214417,255.185333 116.639450,242.339066 120.814598,217.674744 
	C125.627556,189.242661 136.319855,163.378403 153.217865,140.066193 
	C162.083939,127.834709 173.584076,120.671814 189.282089,121.666985 
	C201.446503,122.438156 209.989792,130.252808 210.506012,142.227432 
	C205.310974,140.437775 200.425751,138.690796 195.498550,137.071548 
	C186.763443,134.200928 178.307999,137.252472 174.389969,144.606888 
	C169.547424,153.696671 173.012222,164.090668 182.575638,168.483582 
	C186.344467,170.214767 190.374100,171.377319 194.282135,172.806564 
	C201.196106,175.335159 201.157120,175.318726 197.948456,181.776352 
	C191.648666,194.454971 185.404617,207.161407 180.894485,220.626022 
	C178.516541,227.725113 178.536118,227.781281 185.767273,229.810196 
	C204.505508,235.067780 223.095566,240.970642 242.036728,245.354431 
	C260.406219,249.605942 265.817078,265.714355 257.588013,279.428833 
z"/>
<path fill="orangered" opacity="1.000000" stroke="none" 
	d="
M222.524200,114.539566 
	C214.457550,109.794250 206.729889,105.193253 198.954498,100.674370 
	C196.941910,99.504692 195.682541,98.168526 195.629318,95.611786 
	C195.444794,86.747513 196.510083,77.993004 198.310776,69.382866 
	C201.783981,55.147285 211.787537,48.774036 225.524887,46.757133 
	C256.504700,42.208706 279.008636,58.423401 294.357605,80.087120 
	C294.625275,80.464912 294.653625,81.012222 294.805939,81.521507 
	C293.288177,83.428810 291.171112,82.930939 289.273010,82.928558 
	C279.944519,82.916870 270.612427,82.951675 261.289307,82.693428 
	C256.854553,82.570580 254.659866,83.950943 255.305267,88.704437 
	C255.571991,90.668808 255.644638,92.742554 255.327377,94.688591 
	C254.066818,102.420502 256.778839,107.784088 264.143951,110.813957 
	C266.115845,111.625160 267.816589,113.088806 269.655731,114.230499 
	C280.255096,120.810242 278.989136,117.699455 275.884155,129.978027 
	C274.838074,134.114639 273.573639,138.196045 272.132202,143.278732 
	C255.253174,133.496460 239.049271,124.105476 222.524200,114.539566 
z"/>
<path fill="orangered" opacity="1.000000" stroke="none" 
	d="
M238.994110,156.876526 
	C266.203888,166.893524 293.048157,176.773315 319.886963,186.667816 
	C329.015320,190.033112 332.883484,196.509247 330.361908,204.125732 
	C327.697784,212.172836 320.201904,215.363449 311.276520,212.083588 
	C289.270020,203.996780 267.291046,195.835236 245.299103,187.708862 
	C225.333710,180.331314 205.338989,173.031937 185.413132,165.549179 
	C178.172180,162.829987 174.603867,156.339828 176.332047,149.918365 
	C178.629364,141.382065 185.901749,137.515686 194.591003,140.611084 
	C209.316605,145.856796 223.952728,151.353729 238.994110,156.876526 
z"/>
<path fill="orangered" opacity="1.000000" stroke="none" 
	d="
M388.758484,248.976959 
	C380.764435,231.579361 389.527893,214.277939 407.559845,211.060394 
	C412.510193,210.177063 416.275391,211.828827 418.149750,216.386398 
	C423.637268,229.729340 423.694885,243.243454 418.183167,256.578583 
	C416.142395,261.516052 412.489960,262.888641 407.168060,261.937225 
	C399.148346,260.503479 393.126801,256.241760 388.758484,248.976959 
z"/>
<path fill="orangered" opacity="1.000000" stroke="none" 
	d="
M257.949860,88.826057 
	C258.051025,87.411400 258.125763,86.111992 259.177887,85.887421 
	C264.090027,84.838951 269.058807,85.258545 274.003296,85.722939 
	C274.923615,85.809380 275.092468,86.807617 275.427948,87.579430 
	C277.900238,93.267181 275.846863,106.406059 271.259979,112.188339 
	C267.510803,110.022331 263.630188,107.885490 259.866913,105.558792 
	C258.161163,104.504189 257.864960,102.601303 257.875793,100.699478 
	C257.897552,96.877029 257.914185,93.054550 257.949860,88.826057 
z"/>
<path fill="orangered" opacity="1.000000" stroke="none" 
	d="
M217.555878,114.394623 
	C226.835403,119.846107 235.808578,125.096733 245.253540,130.623444 
	C231.413788,137.416275 208.423965,124.350395 204.006760,107.491241 
	C209.285583,108.636360 212.918884,112.181839 217.555878,114.394623 
z"/>
</svg>