<svg width="80" height="81" viewBox="0 0 80 81" fill="none" xmlns="http://www.w3.org/2000/svg">
<path fill-rule="evenodd" clip-rule="evenodd" d="M30.038 13.1562C29.7352 13.1562 29.4893 13.4022 29.4893 13.7055V15.5614C29.4893 16.2898 29.7784 16.9878 30.2932 17.5026C30.8081 18.0175 31.5061 18.3066 32.2345 18.3066H46.8755C47.6039 18.3066 48.302 18.0175 48.8168 17.5026C49.3317 16.9877 49.6207 16.2898 49.6207 15.5614V13.7055C49.6207 13.4022 49.3748 13.1562 49.0715 13.1562H30.038ZM30.5868 14.2542H48.5225V15.5613C48.5225 15.9981 48.3492 16.4168 48.04 16.726C47.7308 17.0348 47.3121 17.2085 46.8753 17.2085H32.2342C31.7973 17.2085 31.3782 17.0348 31.0694 16.726C30.7607 16.4173 30.5869 15.9981 30.5869 15.5613L30.5864 14.2542H30.5868Z" fill="black"/>
<path fill-rule="evenodd" clip-rule="evenodd" d="M30.9531 59.159H48.1562C48.4591 59.159 48.7055 58.9131 48.7055 58.6103C48.7055 58.3074 48.4596 58.0615 48.1562 58.0615H30.9531C30.6502 58.0615 30.4043 58.3074 30.4043 58.6103C30.4043 58.9131 30.6502 59.159 30.9531 59.159V59.159Z" fill="black"/>
<path fill-rule="evenodd" clip-rule="evenodd" d="M61 19.0861C61 17.5134 60.1433 16.005 58.6183 14.893C57.0933 13.781 55.0247 13.1562 52.8679 13.1562H27.1322C24.9753 13.1562 22.9072 13.781 21.3817 14.893C19.8568 16.005 19 17.5134 19 19.0861V59.2264C19 60.7991 19.8567 62.3075 21.3817 63.4195C22.9072 64.5315 24.9753 65.1563 27.1322 65.1563H52.8679C55.0247 65.1563 57.0933 64.5315 58.6183 63.4195C60.1432 62.3075 61 60.7991 61 59.2264V19.0861V19.0861ZM59.749 19.0857V59.2259C59.749 60.5565 59.0243 61.8329 57.7336 62.774C56.443 63.7147 54.6932 64.2436 52.868 64.2436H27.1322C25.3075 64.2436 23.5571 63.7147 22.2671 62.774C20.9765 61.8328 20.2517 60.5569 20.2517 59.2259V19.0857C20.2517 17.7552 20.9765 16.4788 22.2671 15.5377C23.5572 14.5966 25.3075 14.0681 27.1322 14.0681H52.868C54.6927 14.0681 56.4431 14.5966 57.7336 15.5377C59.0243 16.4789 59.749 17.7548 59.749 19.0853V19.0857Z" fill="black"/>
<path d="M51.8475 40.9086C51.2496 40.9086 50.6653 41.0095 50.1017 41.2072L50.1001 41.2024C50.044 41.0684 49.936 40.9625 49.8003 40.9103C49.6651 40.8569 49.5134 40.8621 49.3815 40.9232C48.1912 41.476 47.2227 42.4116 46.6234 43.5799L42.7658 43.5797V42.5113H44.9027C45.01 42.5113 45.1147 42.4786 45.2034 42.4183L56.9561 34.4051C57.1025 34.3047 57.1905 34.1385 57.1895 33.9613C57.1886 33.7834 57.0991 33.6178 56.9518 33.5196C56.8807 33.4719 55.1825 32.3612 52.3817 32.3612C50.7738 32.3612 50.0504 33.9424 49.8165 34.6118L45.3503 36.1007H40.629V35.5665C40.629 34.0936 39.4309 32.8954 37.958 32.8954H35.2869C33.9295 32.8954 32.9812 33.4974 32.6991 34.4981H30.9426L32.5254 32.1234C32.6793 31.8926 32.6313 31.5828 32.4143 31.4097L29.7432 29.2728C29.5424 29.1116 29.2534 29.1185 29.0578 29.2879C28.8768 29.4476 24.6026 33.2444 24.6026 38.2376C24.6026 38.8951 24.7345 39.5357 24.9947 40.1392C25.0512 40.2711 25.1592 40.3744 25.2928 40.4261C25.4259 40.4786 25.5754 40.4736 25.7058 40.4144C26.5456 40.0331 27.4322 39.8402 28.3421 39.8402C28.8634 39.8402 29.3679 39.9096 29.8534 40.0276L29.5148 41.0426C29.137 40.9577 28.7454 40.9086 28.3421 40.9086C25.3966 40.9086 23 43.3052 23 46.2507C23 49.1963 25.3966 51.5928 28.3421 51.5928C31.2877 51.5928 33.6842 49.1963 33.6842 46.2507C33.6842 44.0846 32.3856 42.2191 30.5281 41.382L30.8684 40.361C33.15 41.3434 34.7527 43.6128 34.7527 46.2507C34.7527 47.1028 34.586 47.9313 34.2585 48.7155C34.1896 48.8805 34.2072 49.0687 34.3067 49.217C34.4054 49.3668 34.5726 49.456 34.751 49.456H45.4383C45.6166 49.456 45.7838 49.3668 45.8833 49.2177C45.982 49.0691 46.0004 48.8807 45.9315 48.7162C45.7461 48.2724 45.6147 47.8042 45.5339 47.3198H46.6152C47.1136 49.7867 49.2836 51.5935 51.8478 51.5935C54.7934 51.5935 57.19 49.197 57.19 46.2514C57.19 43.3056 54.7929 40.9086 51.8474 40.9086L51.8475 40.9086ZM32.6159 46.2507C32.6159 48.6072 30.6987 50.5244 28.3422 50.5244C25.9857 50.5244 24.0685 48.6072 24.0685 46.2507C24.0685 43.8942 25.9857 41.977 28.3422 41.977C28.6274 41.977 28.9062 42.0064 29.1754 42.0598L28.833 43.0872C28.6729 43.0619 28.5093 43.0455 28.3422 43.0455C26.5745 43.0455 25.1369 44.4831 25.1369 46.2507C25.1369 48.0184 26.5745 49.456 28.3422 49.456C30.1098 49.456 31.5474 48.0184 31.5474 46.2507C31.5474 45.0273 30.8577 43.9631 29.8482 43.4225L30.1885 42.4023C31.6216 43.0929 32.6159 44.5556 32.6159 46.2507L32.6159 46.2507ZM28.1733 46.7573C28.2294 46.7759 28.2861 46.7849 28.3422 46.7849C28.5661 46.7849 28.7743 46.6433 28.8492 46.4196L29.5019 44.4606C30.0886 44.842 30.479 45.5007 30.479 46.2507C30.479 47.4291 29.5205 48.3875 28.3422 48.3875C27.1638 48.3875 26.2053 47.4291 26.2053 46.2507C26.2053 45.0723 27.1638 44.1139 28.3422 44.1139C28.3913 44.1139 28.4378 44.1251 28.4864 44.1282L27.8351 46.0811C27.7416 46.3618 27.8933 46.6642 28.1733 46.7572L28.1733 46.7573ZM52.3404 46.5794L51.3414 44.1818C51.5091 44.1375 51.6779 44.1139 51.8473 44.1139C53.0256 44.1139 53.9841 45.0723 53.9841 46.2507C53.9841 47.4291 53.0256 48.3875 51.8473 48.3875C51.0722 48.3875 50.3765 47.9628 50.0016 47.3191H51.8473C52.0256 47.3191 52.1923 47.2299 52.2918 47.0813C52.391 46.9323 52.4091 46.7444 52.3404 46.5793L52.3404 46.5794ZM46.9609 44.6481C47.1724 44.6481 47.3642 44.5231 47.4498 44.3292C47.8488 43.4232 48.5096 42.6672 49.3398 42.1566L51.0459 46.2507H42.7659V44.6481L46.9609 44.6481ZM40.6291 46.2507V42.5112H41.6975V46.2507H40.6291ZM44.9028 37.1691V37.7033C44.9028 37.9981 44.6629 38.2375 44.3686 38.2375H41.1633C40.869 38.2375 40.6291 37.9981 40.6291 37.7033V37.1691H44.9028ZM35.287 33.9639H37.9581C38.8417 33.9639 39.5607 34.6829 39.5607 35.5665V37.7033C39.5607 38.587 40.2797 39.306 41.1633 39.306H44.3686C45.2522 39.306 45.9712 38.587 45.9712 37.7033V37.0201L50.4138 35.5393C50.5857 35.4821 50.7179 35.3395 50.7627 35.1637C50.7675 35.1461 51.2194 33.4297 52.3818 33.4297C53.8139 33.4297 54.9231 33.7588 55.6021 34.0354L44.7378 41.443H40.3162L33.7237 34.8505C33.9052 34.0921 34.759 33.9638 35.2868 33.9638L35.287 33.9639ZM35.5093 48.3876C35.7165 47.6962 35.8212 46.9805 35.8212 46.2507C35.8212 42.1265 32.4664 38.7718 28.3423 38.7718C27.472 38.7718 26.6199 38.9225 25.8026 39.2215C25.7151 38.9022 25.6712 38.5731 25.6712 38.2376C25.6712 34.4912 28.4762 31.3636 29.4417 30.399L31.3653 31.938L29.5003 34.7356C29.3909 34.8997 29.3806 35.1101 29.4736 35.2837C29.5666 35.458 29.7477 35.5665 29.9449 35.5665H32.9291L39.5606 42.1981V46.7849C39.5606 47.0804 39.8001 47.3191 40.0948 47.3191H44.4508C44.5026 47.6835 44.5796 48.0403 44.6826 48.3875L35.5093 48.3876ZM51.8476 50.5244C49.8715 50.5244 48.1921 49.182 47.7149 47.3191H48.8346C49.2822 48.5776 50.482 49.456 51.8481 49.456C53.6157 49.456 55.0533 48.0184 55.0533 46.2507C55.0533 44.4831 53.6157 43.0454 51.8481 43.0454C51.5378 43.0454 51.2311 43.0989 50.9304 43.1928L50.5147 42.1955C50.9454 42.0519 51.3918 41.977 51.8476 41.977C54.2041 41.977 56.1213 43.8942 56.1213 46.2507C56.1213 48.6072 54.2041 50.5244 51.8476 50.5244H51.8476Z" fill="#EE2326"/>
</svg>
