<svg width="81" height="81" viewBox="0 0 81 81" fill="none" xmlns="http://www.w3.org/2000/svg">
<path d="M58.1653 13.7734H22.9417C22.2745 13.774 21.6349 14.0391 21.1637 14.5108C20.692 14.9826 20.4263 15.6222 20.4258 16.2894V63.2532C20.4263 63.9204 20.692 64.5601 21.1637 65.0318C21.6349 65.5035 22.2746 65.7686 22.9417 65.7692H58.1653C58.8325 65.7686 59.4721 65.5035 59.9433 65.0318C60.415 64.5601 60.6807 63.9204 60.6812 63.2532V16.2894C60.6807 15.6222 60.415 14.9826 59.9433 14.5108C59.4721 14.0391 58.8325 13.774 58.1653 13.7734ZM59.0038 63.2547C59.0038 63.718 58.6281 64.0926 58.1653 64.0931H22.9417C22.479 64.0926 22.1033 63.7174 22.1033 63.2541V55.7062H23.7808C24.2441 55.7062 24.6192 55.331 24.6192 54.8677C24.6192 54.4044 24.2435 54.0293 23.7802 54.0293H22.1033V45.6423H23.7808C24.2441 45.6423 24.6192 45.2672 24.6192 44.8038C24.6192 44.3405 24.2435 43.9654 23.7802 43.9654H22.1033V35.5784H23.7808C24.2441 35.5784 24.6193 35.2033 24.6193 34.74C24.6193 34.2767 24.2435 33.9015 23.7802 33.9015H22.1033V25.5145H23.7808C24.2441 25.5145 24.6193 25.1394 24.6193 24.6761C24.6193 24.2128 24.2436 23.8376 23.7802 23.8376H22.1033V16.2897C22.1033 15.8264 22.479 15.4512 22.9418 15.4507H58.1654C58.6281 15.4512 59.0038 15.8264 59.0038 16.2897L59.0038 63.2547Z" fill="#303030"/>
<mask id="mask0_3574_41563" style="mask-type:alpha" maskUnits="userSpaceOnUse" x="29" y="27" width="25" height="25">
<rect x="29.4258" y="27.7734" width="24" height="24" fill="#D9D9D9"/>
</mask>
<g mask="url(#mask0_3574_41563)">
<path d="M56.8775 16.6963H24.3634C23.7476 16.6968 23.1571 16.9415 22.7222 17.3769C22.2867 17.8124 22.0415 18.4029 22.041 19.0187V62.3699C22.0415 62.9858 22.2867 63.5762 22.7222 64.0117C23.1571 64.4471 23.7476 64.6918 24.3634 64.6923H56.8775C57.4934 64.6918 58.0838 64.4471 58.5187 64.0117C58.9542 63.5762 59.1994 62.9858 59.1999 62.3699V19.0187C59.1994 18.4029 58.9542 17.8124 58.5187 17.3769C58.0838 16.9415 57.4933 16.6968 56.8775 16.6963ZM57.6515 62.3713V62.3708C57.6515 62.7984 57.3047 63.1447 56.8775 63.1452H24.3634C23.9363 63.1447 23.5895 62.7984 23.5895 62.3708V55.4034H25.1379H25.1374C25.5651 55.4034 25.9119 55.0572 25.9119 54.6295C25.9119 54.2018 25.5651 53.8555 25.1374 53.8555H23.5895V46.1137H25.1379H25.1374C25.5651 46.1137 25.9119 45.7674 25.9119 45.3397C25.9119 44.9121 25.5651 44.5658 25.1374 44.5658H23.5895V36.824H25.1379H25.1374C25.5651 36.824 25.9119 36.4777 25.9119 36.05C25.9119 35.6223 25.5651 35.276 25.1374 35.276H23.5895V27.5342H25.138H25.1374C25.5651 27.5342 25.9119 27.1879 25.9119 26.7603C25.9119 26.3326 25.5651 25.9863 25.1374 25.9863H23.5895V19.019C23.5895 18.5913 23.9363 18.245 24.3635 18.2445H56.8775C57.3047 18.245 57.6515 18.5913 57.6515 19.019L57.6515 62.3713ZM49.5312 43.1986C49.1294 42.7699 48.5742 42.5179 47.9874 42.4977C47.4 42.478 46.8287 42.6916 46.3989 43.0918L44.8562 44.5334L36.7214 35.8279L38.2637 34.3863C38.6929 33.985 38.9453 33.4298 38.9656 32.8424C38.9853 32.2551 38.7712 31.6838 38.3699 31.254L35.7432 28.4432C35.3425 28.0124 34.7867 27.7594 34.1988 27.7408C33.6115 27.7226 33.0402 27.9373 32.6104 28.3375L31.5565 29.3229C30.4767 30.3349 29.8416 31.7335 29.7919 33.2126C29.7416 34.6916 30.2802 36.1301 31.2895 37.2126L43.1075 49.8584C44.1158 50.944 45.5165 51.5806 46.9971 51.6272C47.0619 51.6293 47.1262 51.6303 47.191 51.6303V51.6298C48.6052 51.6324 49.967 51.0948 50.9977 50.1264L52.0516 49.141C52.4808 48.7397 52.7333 48.184 52.7535 47.5966C52.7732 47.0093 52.5591 46.4375 52.1578 46.0082L49.5312 43.1986ZM50.994 48.0104L49.9412 48.9954C49.1594 49.7258 48.1195 50.1156 47.0501 50.0793C45.9806 50.0431 44.9697 49.5838 44.2393 48.802L32.4207 36.1556C31.6913 35.3734 31.3025 34.3335 31.3383 33.2645C31.3746 32.1961 31.8329 31.1852 32.6136 30.4537L33.6675 29.4687C33.7909 29.3526 33.9542 29.2883 34.1232 29.2889H34.1465C34.3238 29.2946 34.4912 29.3708 34.612 29.5004L37.2388 32.3112C37.3595 32.4408 37.4243 32.6129 37.4186 32.7902C37.4124 32.9675 37.3362 33.1349 37.2066 33.2557L35.0988 35.2262H35.0983C34.7862 35.518 34.7701 36.0074 35.062 36.32L44.2538 46.1561C44.3937 46.3065 44.5876 46.3946 44.7929 46.4013C44.9987 46.4127 45.1998 46.3371 45.3476 46.1935L47.456 44.223C47.7255 43.9716 48.148 43.9861 48.4 44.2556L51.0262 47.0659H51.0267C51.2786 47.3355 51.2641 47.7585 50.9946 48.011L50.994 48.0104Z" fill="#EE2326"/>
</g>
</svg>
