<svg version="1.1" id="Layer_1" xmlns="http://www.w3.org/2000/svg" xmlns:xlink="http://www.w3.org/1999/xlink" x="0px" y="0px"
	 width="100%" viewBox="0 0 512 512" enable-background="new 0 0 512 512" xml:space="preserve">
<path fill="white" opacity="1.000000" stroke="none" 
	d="
M1.000000,188.000000 
	C1.000000,125.333336 1.000000,63.166668 1.000000,1.000000 
	C171.666672,1.000000 342.333344,1.000000 513.000000,1.000000 
	C513.000000,171.666672 513.000000,342.333344 513.000000,513.000000 
	C342.333344,513.000000 171.666672,513.000000 1.000000,513.000000 
	C1.000000,404.833344 1.000000,296.666656 1.000000,188.000000 
M120.864288,38.070358 
	C117.537262,23.764442 107.264977,15.654547 94.316307,17.110928 
	C81.502106,18.552183 73.025864,29.016554 72.999237,43.436184 
	C72.991035,47.876320 72.997963,52.316483 72.997963,56.997913 
	C68.489014,56.997913 64.516388,56.997169 60.543770,56.998032 
	C33.544315,57.003887 17.000256,73.538834 16.999338,100.540886 
	C16.995800,204.859695 16.995668,309.178497 16.999432,413.497314 
	C17.000404,440.457916 33.574661,456.999329 60.587269,457.000549 
	C147.575150,457.004456 234.563049,457.012329 321.550903,456.955902 
	C324.395935,456.954071 326.259003,457.446014 328.064697,460.116486 
	C350.367584,493.100372 381.370178,508.449524 421.110565,504.042694 
	C491.685455,496.216522 528.772461,413.428650 488.217682,354.960449 
	C478.116486,340.397430 464.979218,329.456573 449.002075,321.791840 
	C449.002075,319.812927 449.002106,317.984863 449.002106,316.156830 
	C449.002106,244.166855 449.007660,172.176880 448.999146,100.186897 
	C448.996002,73.590981 432.319153,57.009098 405.604279,56.998154 
	C401.493774,56.996471 397.383270,56.997917 392.998352,56.997917 
	C392.998352,51.523338 393.049866,46.553303 392.988556,41.584663 
	C392.815552,27.569448 382.341309,16.937971 368.831573,17.011646 
	C355.569427,17.083975 345.185364,27.698915 345.012787,41.418354 
	C344.948578,46.524910 345.002411,51.632954 345.002411,56.728458 
	C331.400055,56.728458 318.330078,56.728458 304.997650,56.728458 
	C304.997650,51.489132 305.050690,46.516052 304.987549,41.544449 
	C304.809601,27.535894 294.316223,16.920307 280.791351,17.011644 
	C267.536133,17.101160 257.179230,27.724131 257.011963,41.458569 
	C256.949799,46.561245 257.001923,51.665310 257.001923,56.714630 
	C240.705215,56.714630 224.968735,56.714630 209.000977,56.714630 
	C209.000977,51.623943 209.037140,46.814201 208.994186,42.005165 
	C208.865723,27.626694 198.448410,16.902018 184.752243,17.011648 
	C171.333679,17.119059 161.115631,27.855177 161.004837,41.997513 
	C160.966202,46.929363 160.998672,51.861771 160.998672,56.700432 
	C147.343094,56.700432 134.272491,56.700432 120.933853,56.700432 
	C120.933853,50.591881 120.933853,44.779079 120.864288,38.070358 
z"/>
<path fill="orangered" opacity="1.000000" stroke="none" 
	d="
M120.899071,38.518318 
	C120.933853,44.779079 120.933853,50.591881 120.933853,56.700432 
	C134.272491,56.700432 147.343094,56.700432 160.998672,56.700432 
	C160.998672,51.861771 160.966202,46.929363 161.004837,41.997513 
	C161.115631,27.855177 171.333679,17.119059 184.752243,17.011648 
	C198.448410,16.902018 208.865723,27.626694 208.994186,42.005165 
	C209.037140,46.814201 209.000977,51.623943 209.000977,56.714630 
	C224.968735,56.714630 240.705215,56.714630 257.001923,56.714630 
	C257.001923,51.665310 256.949799,46.561245 257.011963,41.458569 
	C257.179230,27.724131 267.536133,17.101160 280.791351,17.011644 
	C294.316223,16.920307 304.809601,27.535894 304.987549,41.544449 
	C305.050690,46.516052 304.997650,51.489132 304.997650,56.728458 
	C318.330078,56.728458 331.400055,56.728458 345.002411,56.728458 
	C345.002411,51.632954 344.948578,46.524910 345.012787,41.418354 
	C345.185364,27.698915 355.569427,17.083975 368.831573,17.011646 
	C382.341309,16.937971 392.815552,27.569448 392.988556,41.584663 
	C393.049866,46.553303 392.998352,51.523338 392.998352,56.997917 
	C397.383270,56.997917 401.493774,56.996471 405.604279,56.998154 
	C432.319153,57.009098 448.996002,73.590981 448.999146,100.186897 
	C449.007660,172.176880 449.002106,244.166855 449.002106,316.156830 
	C449.002106,317.984863 449.002075,319.812927 449.002075,321.791840 
	C464.979218,329.456573 478.116486,340.397430 488.217682,354.960449 
	C528.772461,413.428650 491.685455,496.216522 421.110565,504.042694 
	C381.370178,508.449524 350.367584,493.100372 328.064697,460.116486 
	C326.259003,457.446014 324.395935,456.954071 321.550903,456.955902 
	C234.563049,457.012329 147.575150,457.004456 60.587269,457.000549 
	C33.574661,456.999329 17.000404,440.457916 16.999432,413.497314 
	C16.995668,309.178497 16.995800,204.859695 16.999338,100.540886 
	C17.000256,73.538834 33.544315,57.003887 60.543770,56.998032 
	C64.516388,56.997169 68.489014,56.997913 72.997963,56.997913 
	C72.997963,52.316483 72.991035,47.876320 72.999237,43.436184 
	C73.025864,29.016554 81.502106,18.552183 94.316307,17.110928 
	C107.264977,15.654547 117.537262,23.764442 120.899071,38.518318 
M133.500000,440.997620 
	C194.972870,440.997620 256.445740,440.997620 318.094727,440.997620 
	C305.185547,395.423828 317.670013,358.422638 354.584106,329.472015 
	C354.502441,329.338959 354.421753,329.090027 354.338989,329.089325 
	C349.341156,329.047333 344.343079,329.031677 339.345093,329.000916 
	C331.759277,328.954224 329.021393,326.314453 329.006531,318.888977 
	C328.977142,304.225677 328.972076,289.562256 329.008972,274.898987 
	C329.026947,267.746735 331.802612,265.022522 339.052307,265.006897 
	C353.382294,264.976013 367.712433,264.989624 382.042511,265.000671 
	C390.548553,265.007263 392.992859,267.464325 392.999725,276.003845 
	C393.009888,288.643341 393.002350,301.282806 393.002350,312.940186 
	C406.536346,313.539581 419.664795,314.151002 432.754639,314.700714 
	C432.754639,261.483490 432.754639,207.399933 432.754639,153.221893 
	C299.462372,153.221893 166.413132,153.221893 33.002426,153.221893 
	C33.002426,154.896103 33.002422,156.355942 33.002422,157.815781 
	C33.002415,243.463028 32.995739,329.110291 33.008190,414.757538 
	C33.010590,431.253754 42.856083,440.981659 59.516548,440.993256 
	C83.844353,441.010223 108.172180,440.997650 133.500000,440.997620 
M382.923920,108.537132 
	C374.705353,113.925415 366.111511,114.738876 357.465546,109.924576 
	C348.652130,105.017006 344.771851,97.147690 344.982117,87.130486 
	C345.078888,82.520569 344.998596,77.906937 344.998596,73.254242 
	C331.434906,73.254242 318.364655,73.254242 304.997955,73.254242 
	C304.997955,78.470459 305.049194,83.440086 304.988190,88.408325 
	C304.816162,102.413246 294.322266,113.064545 280.827148,112.984810 
	C267.557831,112.906403 257.190643,102.303261 257.014130,88.570053 
	C256.948517,83.464348 257.003510,78.357086 257.003510,73.275391 
	C240.725311,73.275391 224.988358,73.275391 208.996902,73.275391 
	C208.996902,78.520660 209.050507,83.495140 208.986679,88.468117 
	C208.807190,102.453148 198.274368,113.091187 184.767334,112.984795 
	C171.511124,112.880386 161.181870,102.262932 161.012817,88.510269 
	C160.950134,83.411469 161.002670,78.311249 161.002670,73.296783 
	C147.348450,73.296783 134.277390,73.296783 121.000404,73.296783 
	C121.000404,78.403214 121.037483,83.216370 120.993431,88.028786 
	C120.863892,102.178505 110.633728,112.895065 97.206772,112.984810 
	C83.516968,113.076317 73.118927,102.334587 73.005417,87.949890 
	C72.966537,83.023499 72.999237,78.096535 72.999237,73.019257 
	C67.063744,73.019257 61.744041,72.905998 56.430744,73.042358 
	C44.614273,73.345619 34.036297,82.135933 33.358917,93.847801 
	C32.535995,108.076050 33.163479,122.388191 33.163479,136.771393 
	C166.527130,136.771393 299.589447,136.771393 432.906586,136.771393 
	C432.906586,122.587135 433.258026,108.615891 432.787048,94.672424 
	C432.455139,84.846764 425.008820,75.986656 415.262787,74.114426 
	C408.071991,72.733078 400.550995,73.070747 393.000916,72.632263 
	C393.000916,78.306961 392.938690,82.962326 393.014526,87.615448 
	C393.151123,95.994949 390.079651,102.841286 382.923920,108.537132 
M371.748260,479.800781 
	C382.383728,485.317749 393.678741,488.531647 405.652832,488.925079 
	C455.980347,490.578735 494.660797,447.807159 488.124725,397.835327 
	C482.255157,352.959900 437.951355,321.293793 393.824158,330.434082 
	C360.741089,337.286774 335.323090,363.210175 330.107452,395.417694 
	C324.536957,429.816895 340.275604,462.043732 371.748260,479.800781 
M345.002716,292.517273 
	C345.002716,299.278198 345.002716,306.039124 345.002716,312.703186 
	C355.992279,312.703186 366.392120,312.703186 376.702698,312.703186 
	C376.702698,302.006744 376.702698,291.606873 376.702698,281.297791 
	C366.005768,281.297791 355.605896,281.297791 345.002716,281.297791 
	C345.002716,284.900696 345.002716,288.212067 345.002716,292.517273 
M360.997833,60.500092 
	C360.998108,69.642265 360.942841,78.784897 361.019470,87.926430 
	C361.065430,93.410080 364.182587,96.885185 368.864868,96.966560 
	C373.560760,97.048157 376.942596,93.563484 376.970978,88.188896 
	C377.052490,72.730751 377.053925,57.271618 376.970703,41.813496 
	C376.941620,36.413651 373.585663,32.951324 368.878113,33.027222 
	C364.168823,33.103146 361.096313,36.541542 361.017426,42.047234 
	C360.934113,47.863789 360.998169,53.682453 360.997833,60.500092 
M274.558716,93.670685 
	C277.068237,96.619553 280.105530,97.874222 283.863922,96.356506 
	C287.799500,94.767242 289.040924,91.597069 289.025116,87.564957 
	C288.966492,72.585526 289.028870,57.605659 288.988495,42.626106 
	C288.972473,36.680332 286.012238,33.134060 281.173767,33.027012 
	C276.142242,32.915691 273.023987,36.563690 273.009369,42.767761 
	C272.974487,57.580894 272.957581,72.394417 273.047302,87.207092 
	C273.058990,89.138832 273.740417,91.066528 274.558716,93.670685 
M176.997818,73.498856 
	C176.997833,77.986832 176.975845,82.474945 177.003174,86.962753 
	C177.041672,93.285141 179.913300,96.901344 184.898407,96.966553 
	C189.920197,97.032249 192.977707,93.395576 192.991531,87.158127 
	C193.024338,72.364471 193.026505,57.570633 192.990417,42.776993 
	C192.975220,36.547634 189.885788,32.924843 184.844376,33.027245 
	C179.999954,33.125645 177.039078,36.660263 177.011154,42.579460 
	C176.964111,52.552540 176.997971,62.525997 176.997818,73.498856 
M102.368141,94.873734 
	C103.245979,92.458015 104.846291,90.053444 104.883774,87.624763 
	C105.117477,72.480408 105.041039,57.330513 104.980804,42.182796 
	C104.958733,36.632648 101.904716,33.162895 97.228058,33.026970 
	C92.345825,32.885067 89.040924,36.460392 89.018532,42.215900 
	C88.959595,57.363628 88.941460,72.512039 89.021622,87.659569 
	C89.063820,95.631874 94.453827,98.822289 102.368141,94.873734 
z"/>
<path fill="white" opacity="1.000000" stroke="none" 
	d="
M133.000000,440.997620 
	C108.172180,440.997650 83.844353,441.010223 59.516548,440.993256 
	C42.856083,440.981659 33.010590,431.253754 33.008190,414.757538 
	C32.995739,329.110291 33.002415,243.463028 33.002422,157.815781 
	C33.002422,156.355942 33.002426,154.896103 33.002426,153.221893 
	C166.413132,153.221893 299.462372,153.221893 432.754639,153.221893 
	C432.754639,207.399933 432.754639,261.483490 432.754639,314.700714 
	C419.664795,314.151002 406.536346,313.539581 393.002350,312.940186 
	C393.002350,301.282806 393.009888,288.643341 392.999725,276.003845 
	C392.992859,267.464325 390.548553,265.007263 382.042511,265.000671 
	C367.712433,264.989624 353.382294,264.976013 339.052307,265.006897 
	C331.802612,265.022522 329.026947,267.746735 329.008972,274.898987 
	C328.972076,289.562256 328.977142,304.225677 329.006531,318.888977 
	C329.021393,326.314453 331.759277,328.954224 339.345093,329.000916 
	C344.343079,329.031677 349.341156,329.047333 354.338989,329.089325 
	C354.421753,329.090027 354.502441,329.338959 354.586121,329.472687 
	C317.670013,358.422638 305.185547,395.423828 318.094727,440.997620 
	C256.445740,440.997620 194.972870,440.997620 133.000000,440.997620 
M305.001312,198.503494 
	C305.000977,194.343170 305.069397,190.181427 304.983826,186.022858 
	C304.862183,180.111877 301.930420,177.057724 296.076752,177.027023 
	C280.767181,176.946716 265.456665,176.953476 250.146973,177.022263 
	C243.976059,177.049988 241.044739,180.039337 241.019409,186.287521 
	C240.958038,201.430878 240.958694,216.574829 241.018921,231.718185 
	C241.043701,237.948517 243.985336,240.947800 250.159103,240.977020 
	C265.302399,241.048721 280.446350,241.040085 295.589752,240.981964 
	C302.054993,240.957138 304.949310,237.998291 304.985138,231.453445 
	C305.043365,220.803314 305.001129,210.152649 305.001312,198.503494 
M272.500000,264.998688 
	C265.011444,264.999023 257.522064,264.931366 250.034607,265.021332 
	C244.102570,265.092590 241.060394,268.032959 241.028198,273.900787 
	C240.944199,289.210266 240.954437,304.520691 241.021469,319.830353 
	C241.048508,326.007202 244.032364,328.953125 250.271210,328.979614 
	C265.414459,329.043976 280.558350,329.042267 295.701599,328.980194 
	C301.924927,328.954712 304.947510,325.994659 304.976562,319.840851 
	C305.048798,304.531250 305.056030,289.220825 304.971741,273.911346 
	C304.939545,268.061249 301.869995,265.091827 295.965424,265.021362 
	C288.477905,264.931976 280.988556,264.999054 272.500000,264.998688 
M194.497894,329.001312 
	C198.991043,329.000885 203.485596,329.071075 207.977005,328.982574 
	C213.870316,328.866455 216.938950,325.919220 216.971481,320.064362 
	C217.056519,304.754822 217.048416,289.444336 216.976837,274.134674 
	C216.948105,267.985992 213.926315,265.042786 207.689651,265.018616 
	C192.546310,264.959900 177.402405,264.957550 162.259079,265.019684 
	C156.027344,265.045258 153.049973,267.985779 153.021957,274.175354 
	C152.953384,289.318634 152.961060,304.462555 153.017181,319.605927 
	C153.041153,326.075104 155.982468,328.948486 162.546051,328.985504 
	C172.863312,329.043701 183.181168,329.001190 194.497894,329.001312 
M116.356842,329.001312 
	C127.183945,328.993561 129.000885,327.153625 129.001236,316.193237 
	C129.001663,302.378998 129.031479,288.564667 128.988205,274.750549 
	C128.966721,267.893005 126.126373,265.032471 119.304909,265.012421 
	C104.492172,264.968842 89.679153,264.972626 74.866386,265.010254 
	C67.744034,265.028351 65.022820,267.816223 65.007866,275.068024 
	C64.977676,289.714386 64.976776,304.360901 65.008247,319.007233 
	C65.023666,326.181793 67.794708,328.970490 74.948074,328.990417 
	C88.429337,329.027985 101.910782,329.001282 116.356842,329.001312 
M127.881065,356.979828 
	C125.027611,355.652893 122.202286,353.254730 119.315987,353.178986 
	C104.504982,352.790192 89.678238,352.972321 74.857132,353.010406 
	C67.734261,353.028687 65.022354,355.816284 65.007668,363.086548 
	C64.978065,377.741150 64.975494,392.395935 65.008835,407.050507 
	C65.025108,414.206635 67.805000,416.973999 75.000610,416.990936 
	C89.655205,417.025391 104.309982,417.024139 118.964577,416.991302 
	C126.165352,416.975189 128.971710,414.204285 128.989899,407.068665 
	C129.027237,392.414093 129.028580,377.759216 128.965698,363.104828 
	C128.958008,361.317749 128.465088,359.532776 127.881065,356.979828 
M217.001343,387.500000 
	C217.001007,379.012970 217.068344,370.525208 216.977203,362.039154 
	C216.913620,356.119476 213.939117,353.058502 208.093231,353.027435 
	C192.783737,352.945984 177.473312,352.954102 162.163666,353.021851 
	C155.981201,353.049225 153.045502,356.028992 153.019775,362.270752 
	C152.957382,377.414001 152.959274,392.557831 153.018600,407.701141 
	C153.043045,413.942596 155.975647,416.947479 162.141998,416.976593 
	C177.451599,417.048889 192.762070,417.055267 208.071548,416.971832 
	C213.921753,416.939972 216.890686,413.875732 216.978363,407.969879 
	C217.074692,401.481232 217.000977,394.990051 217.001343,387.500000 
M393.001312,211.500000 
	C393.000977,203.012970 393.068298,194.525208 392.977173,186.039154 
	C392.913605,180.119415 389.939209,177.058563 384.093231,177.027466 
	C368.783722,176.946014 353.473297,176.954117 338.163666,177.021866 
	C331.981110,177.049225 329.045502,180.028931 329.019806,186.270737 
	C328.957428,201.414017 328.959351,216.557861 329.018646,231.701157 
	C329.043091,237.942612 331.975586,240.947479 338.141998,240.976593 
	C353.451569,241.048889 368.762054,241.055267 384.071533,240.971832 
	C389.921692,240.939957 392.890717,237.875595 392.978333,231.969894 
	C393.074646,225.481232 393.000946,218.990051 393.001312,211.500000 
M172.509964,241.001343 
	C184.325516,241.000916 196.141479,241.059097 207.956451,240.975327 
	C213.859985,240.933472 216.938736,237.929764 216.970871,232.084778 
	C217.055984,216.608551 217.063019,201.131104 216.962296,185.655045 
	C216.926132,180.099838 213.815033,177.062195 208.207993,177.031372 
	C192.731750,176.946304 177.254425,176.944962 161.778198,177.031693 
	C156.156876,177.063187 153.071762,180.086685 153.037170,185.658295 
	C152.940018,201.300812 152.931747,216.944839 153.044846,232.587158 
	C153.083099,237.875366 156.182449,240.779785 161.531570,240.971878 
	C164.855682,241.091263 168.187408,240.998734 172.509964,241.001343 
M86.503723,241.001343 
	C97.653442,241.000916 108.803627,241.060730 119.952705,240.975601 
	C125.858124,240.930527 128.938507,237.931778 128.970764,232.088699 
	C129.056183,216.612686 129.062820,201.135437 128.962479,185.659592 
	C128.926468,180.102402 125.817444,177.062500 120.212730,177.031570 
	C104.736694,176.946167 89.259583,176.945175 73.783562,177.031448 
	C68.160217,177.062805 65.072159,180.084152 65.037399,185.652756 
	C64.939781,201.295059 64.932053,216.938873 65.044571,232.580978 
	C65.082619,237.870682 68.179657,240.795105 73.525246,240.968430 
	C77.515060,241.097763 81.512276,240.998703 86.503723,241.001343 
M252.694748,352.998688 
	C243.133881,353.033081 241.001801,355.168915 240.999557,364.735840 
	C240.996231,378.883698 240.972382,393.031647 241.010178,407.179413 
	C241.028625,414.074585 243.839264,416.962891 250.621826,416.985657 
	C265.435303,417.035339 280.249146,417.026520 295.062714,416.990204 
	C302.189117,416.972717 304.974762,414.158997 304.991150,406.978912 
	C305.024536,392.331787 305.023193,377.684479 304.991699,363.037354 
	C304.976196,355.837860 302.207581,353.028412 295.091553,353.009521 
	C281.276672,352.972870 267.461639,352.998718 252.694748,352.998688 
z"/>
<path fill="#F6F6F6" opacity="1.000000" stroke="none" 
	d="
M383.203339,108.300171 
	C390.079651,102.841286 393.151123,95.994949 393.014526,87.615448 
	C392.938690,82.962326 393.000916,78.306961 393.000916,72.632263 
	C400.550995,73.070747 408.071991,72.733078 415.262787,74.114426 
	C425.008820,75.986656 432.455139,84.846764 432.787048,94.672424 
	C433.258026,108.615891 432.906586,122.587135 432.906586,136.771393 
	C299.589447,136.771393 166.527130,136.771393 33.163479,136.771393 
	C33.163479,122.388191 32.535995,108.076050 33.358917,93.847801 
	C34.036297,82.135933 44.614273,73.345619 56.430744,73.042358 
	C61.744041,72.905998 67.063744,73.019257 72.999237,73.019257 
	C72.999237,78.096535 72.966537,83.023499 73.005417,87.949890 
	C73.118927,102.334587 83.516968,113.076317 97.206772,112.984810 
	C110.633728,112.895065 120.863892,102.178505 120.993431,88.028786 
	C121.037483,83.216370 121.000404,78.403214 121.000404,73.296783 
	C134.277390,73.296783 147.348450,73.296783 161.002670,73.296783 
	C161.002670,78.311249 160.950134,83.411469 161.012817,88.510269 
	C161.181870,102.262932 171.511124,112.880386 184.767334,112.984795 
	C198.274368,113.091187 208.807190,102.453148 208.986679,88.468117 
	C209.050507,83.495140 208.996902,78.520660 208.996902,73.275391 
	C224.988358,73.275391 240.725311,73.275391 257.003510,73.275391 
	C257.003510,78.357086 256.948517,83.464348 257.014130,88.570053 
	C257.190643,102.303261 267.557831,112.906403 280.827148,112.984810 
	C294.322266,113.064545 304.816162,102.413246 304.988190,88.408325 
	C305.049194,83.440086 304.997955,78.470459 304.997955,73.254242 
	C318.364655,73.254242 331.434906,73.254242 344.998596,73.254242 
	C344.998596,77.906937 345.078888,82.520569 344.982117,87.130486 
	C344.771851,97.147690 348.652130,105.017006 357.465546,109.924576 
	C366.111511,114.738876 374.705353,113.925415 383.203339,108.300171 
z"/>
<path fill="#F6F6F6" opacity="1.000000" stroke="none" 
	d="
M371.436218,479.602539 
	C340.275604,462.043732 324.536957,429.816895 330.107452,395.417694 
	C335.323090,363.210175 360.741089,337.286774 393.824158,330.434082 
	C437.951355,321.293793 482.255157,352.959900 488.124725,397.835327 
	C494.660797,447.807159 455.980347,490.578735 405.652832,488.925079 
	C393.678741,488.531647 382.383728,485.317749 371.436218,479.602539 
M400.997528,357.511047 
	C400.997528,368.510590 400.906250,379.511353 401.057098,390.508820 
	C401.098572,393.533813 400.018402,395.442596 398.060974,397.782715 
	C395.649078,400.666290 394.670441,404.735809 393.003082,408.260010 
	C392.093903,410.181641 391.487488,412.567993 389.979370,413.831421 
	C381.570129,420.876312 372.926880,427.641846 364.025482,434.773804 
	C367.436096,438.997345 370.729736,443.075989 374.066498,447.208069 
	C383.051361,440.014252 391.552643,433.041473 400.285645,426.372040 
	C401.818481,425.201355 404.393799,424.697601 406.365540,424.928558 
	C412.686981,425.668915 419.281006,422.808258 422.648834,417.317810 
	C426.064423,411.749420 426.472595,403.876282 421.589783,399.721344 
	C416.414520,395.317627 417.021118,390.348328 417.008240,385.010284 
	C416.986938,376.177368 417.002472,367.344360 417.002472,358.511414 
	C417.002472,354.075409 417.002472,349.639404 417.002472,345.289856 
	C411.351807,345.289856 406.279633,345.289856 400.997528,345.289856 
	C400.997528,349.225983 400.997528,352.871582 400.997528,357.511047 
z"/>
<path fill="white" opacity="1.000000" stroke="none" 
	d="
M345.002716,292.020355 
	C345.002716,288.212067 345.002716,284.900696 345.002716,281.297791 
	C355.605896,281.297791 366.005768,281.297791 376.702698,281.297791 
	C376.702698,291.606873 376.702698,302.006744 376.702698,312.703186 
	C366.392120,312.703186 355.992279,312.703186 345.002716,312.703186 
	C345.002716,306.039124 345.002716,299.278198 345.002716,292.020355 
z"/>
<path fill="#F5F5F5" opacity="1.000000" stroke="none" 
	d="
M360.997833,60.000145 
	C360.998169,53.682453 360.934113,47.863789 361.017426,42.047234 
	C361.096313,36.541542 364.168823,33.103146 368.878113,33.027222 
	C373.585663,32.951324 376.941620,36.413651 376.970703,41.813496 
	C377.053925,57.271618 377.052490,72.730751 376.970978,88.188896 
	C376.942596,93.563484 373.560760,97.048157 368.864868,96.966560 
	C364.182587,96.885185 361.065430,93.410080 361.019470,87.926430 
	C360.942841,78.784897 360.998108,69.642265 360.997833,60.000145 
z"/>
<path fill="#F5F5F5" opacity="1.000000" stroke="none" 
	d="
M274.335175,93.333389 
	C273.740417,91.066528 273.058990,89.138832 273.047302,87.207092 
	C272.957581,72.394417 272.974487,57.580894 273.009369,42.767761 
	C273.023987,36.563690 276.142242,32.915691 281.173767,33.027012 
	C286.012238,33.134060 288.972473,36.680332 288.988495,42.626106 
	C289.028870,57.605659 288.966492,72.585526 289.025116,87.564957 
	C289.040924,91.597069 287.799500,94.767242 283.863922,96.356506 
	C280.105530,97.874222 277.068237,96.619553 274.335175,93.333389 
z"/>
<path fill="#F5F5F5" opacity="1.000000" stroke="none" 
	d="
M176.997818,72.999077 
	C176.997971,62.525997 176.964111,52.552540 177.011154,42.579460 
	C177.039078,36.660263 179.999954,33.125645 184.844376,33.027245 
	C189.885788,32.924843 192.975220,36.547634 192.990417,42.776993 
	C193.026505,57.570633 193.024338,72.364471 192.991531,87.158127 
	C192.977707,93.395576 189.920197,97.032249 184.898407,96.966553 
	C179.913300,96.901344 177.041672,93.285141 177.003174,86.962753 
	C176.975845,82.474945 176.997833,77.986832 176.997818,72.999077 
z"/>
<path fill="#F5F5F5" opacity="1.000000" stroke="none" 
	d="
M102.056732,95.117310 
	C94.453827,98.822289 89.063820,95.631874 89.021622,87.659569 
	C88.941460,72.512039 88.959595,57.363628 89.018532,42.215900 
	C89.040924,36.460392 92.345825,32.885067 97.228058,33.026970 
	C101.904716,33.162895 104.958733,36.632648 104.980804,42.182796 
	C105.041039,57.330513 105.117477,72.480408 104.883774,87.624763 
	C104.846291,90.053444 103.245979,92.458015 102.056732,95.117310 
z"/>
<path fill="orangered" opacity="1.000000" stroke="none" 
	d="
M305.001312,199.002838 
	C305.001129,210.152649 305.043365,220.803314 304.985138,231.453445 
	C304.949310,237.998291 302.054993,240.957138 295.589752,240.981964 
	C280.446350,241.040085 265.302399,241.048721 250.159103,240.977020 
	C243.985336,240.947800 241.043701,237.948517 241.018921,231.718185 
	C240.958694,216.574829 240.958038,201.430878 241.019409,186.287521 
	C241.044739,180.039337 243.976059,177.049988 250.146973,177.022263 
	C265.456665,176.953476 280.767181,176.946716 296.076752,177.027023 
	C301.930420,177.057724 304.862183,180.111877 304.983826,186.022858 
	C305.069397,190.181427 305.000977,194.343170 305.001312,199.002838 
M257.001648,201.544800 
	C257.001648,209.303131 257.001648,217.061462 257.001648,224.693451 
	C268.012573,224.693451 278.414185,224.693451 288.692017,224.693451 
	C288.692017,213.984497 288.692017,203.582840 288.692017,193.309555 
	C277.981750,193.309555 267.580200,193.309555 257.001648,193.309555 
	C257.001648,195.931290 257.001648,198.246399 257.001648,201.544800 
z"/>
<path fill="orangered" opacity="1.000000" stroke="none" 
	d="
M273.000000,264.998688 
	C280.988556,264.999054 288.477905,264.931976 295.965424,265.021362 
	C301.869995,265.091827 304.939545,268.061249 304.971741,273.911346 
	C305.056030,289.220825 305.048798,304.531250 304.976562,319.840851 
	C304.947510,325.994659 301.924927,328.954712 295.701599,328.980194 
	C280.558350,329.042267 265.414459,329.043976 250.271210,328.979614 
	C244.032364,328.953125 241.048508,326.007202 241.021469,319.830353 
	C240.954437,304.520691 240.944199,289.210266 241.028198,273.900787 
	C241.060394,268.032959 244.102570,265.092590 250.034607,265.021332 
	C257.522064,264.931366 265.011444,264.999023 273.000000,264.998688 
M286.316040,281.001984 
	C276.570465,281.001984 266.824860,281.001984 257.357666,281.001984 
	C257.357666,292.114227 257.357666,302.519104 257.357666,312.639282 
	C268.120453,312.639282 278.525482,312.639282 288.998199,312.639282 
	C288.998199,302.954071 289.055237,293.626923 288.922577,284.302490 
	C288.906830,283.196167 287.854218,282.104553 286.316040,281.001984 
z"/>
<path fill="orangered" opacity="1.000000" stroke="none" 
	d="
M193.998322,329.001312 
	C183.181168,329.001190 172.863312,329.043701 162.546051,328.985504 
	C155.982468,328.948486 153.041153,326.075104 153.017181,319.605927 
	C152.961060,304.462555 152.953384,289.318634 153.021957,274.175354 
	C153.049973,267.985779 156.027344,265.045258 162.259079,265.019684 
	C177.402405,264.957550 192.546310,264.959900 207.689651,265.018616 
	C213.926315,265.042786 216.948105,267.985992 216.976837,274.134674 
	C217.048416,289.444336 217.056519,304.754822 216.971481,320.064362 
	C216.938950,325.919220 213.870316,328.866455 207.977005,328.982574 
	C203.485596,329.071075 198.991043,329.000885 193.998322,329.001312 
M174.601593,281.001648 
	C172.828415,281.001648 171.055252,281.001648 169.259216,281.001648 
	C169.259216,291.915436 169.259216,302.316071 169.259216,312.738770 
	C179.919464,312.738770 190.320175,312.738770 200.736725,312.738770 
	C200.736725,302.076385 200.736725,291.675659 200.736725,281.001648 
	C192.178085,281.001648 183.878128,281.001648 174.601593,281.001648 
z"/>
<path fill="orangered" opacity="1.000000" stroke="none" 
	d="
M115.874496,329.001312 
	C101.910782,329.001282 88.429337,329.027985 74.948074,328.990417 
	C67.794708,328.970490 65.023666,326.181793 65.008247,319.007233 
	C64.976776,304.360901 64.977676,289.714386 65.007866,275.068024 
	C65.022820,267.816223 67.744034,265.028351 74.866386,265.010254 
	C89.679153,264.972626 104.492172,264.968842 119.304909,265.012421 
	C126.126373,265.032471 128.966721,267.893005 128.988205,274.750549 
	C129.031479,288.564667 129.001663,302.378998 129.001236,316.193237 
	C129.000885,327.153625 127.183945,328.993561 115.874496,329.001312 
M97.498489,312.998352 
	C102.594910,312.998352 107.691330,312.998352 112.709991,312.998352 
	C112.709991,302.019470 112.709991,291.619232 112.709991,281.290192 
	C102.019051,281.290192 91.618797,281.290192 81.290413,281.290192 
	C81.290413,291.981445 81.290413,302.381622 81.290413,312.998352 
	C86.551353,312.998352 91.526428,312.998352 97.498489,312.998352 
z"/>
<path fill="orangered" opacity="1.000000" stroke="none" 
	d="
M128.039047,357.363342 
	C128.465088,359.532776 128.958008,361.317749 128.965698,363.104828 
	C129.028580,377.759216 129.027237,392.414093 128.989899,407.068665 
	C128.971710,414.204285 126.165352,416.975189 118.964577,416.991302 
	C104.309982,417.024139 89.655205,417.025391 75.000610,416.990936 
	C67.805000,416.973999 65.025108,414.206635 65.008835,407.050507 
	C64.975494,392.395935 64.978065,377.741150 65.007668,363.086548 
	C65.022354,355.816284 67.734261,353.028687 74.857132,353.010406 
	C89.678238,352.972321 104.504982,352.790192 119.315987,353.178986 
	C122.202286,353.254730 125.027611,355.652893 128.039047,357.363342 
M81.001686,380.517212 
	C81.001686,387.278595 81.001686,394.039978 81.001686,400.704163 
	C91.992096,400.704163 102.392708,400.704163 112.703659,400.704163 
	C112.703659,390.006927 112.703659,379.606293 112.703659,369.296814 
	C102.005943,369.296814 91.605309,369.296814 81.001686,369.296814 
	C81.001686,372.901276 81.001686,376.212341 81.001686,380.517212 
z"/>
<path fill="orangered" opacity="1.000000" stroke="none" 
	d="
M217.001343,388.000000 
	C217.000977,394.990051 217.074692,401.481232 216.978363,407.969879 
	C216.890686,413.875732 213.921753,416.939972 208.071548,416.971832 
	C192.762070,417.055267 177.451599,417.048889 162.141998,416.976593 
	C155.975647,416.947479 153.043045,413.942596 153.018600,407.701141 
	C152.959274,392.557831 152.957382,377.414001 153.019775,362.270752 
	C153.045502,356.028992 155.981201,353.049225 162.163666,353.021851 
	C177.473312,352.954102 192.783737,352.945984 208.093231,353.027435 
	C213.939117,353.058502 216.913620,356.119476 216.977203,362.039154 
	C217.068344,370.525208 217.001007,379.012970 217.001343,388.000000 
M200.998322,373.621613 
	C200.998322,372.180237 200.998322,370.738861 200.998322,369.251953 
	C190.098892,369.251953 179.698654,369.251953 169.253693,369.251953 
	C169.253693,379.904388 169.253693,390.304779 169.253693,400.744568 
	C179.907959,400.744568 190.308380,400.744568 200.998322,400.744568 
	C200.998322,391.863159 200.998322,383.232361 200.998322,373.621613 
z"/>
<path fill="orangered" opacity="1.000000" stroke="none" 
	d="
M393.001312,211.999985 
	C393.000946,218.990051 393.074646,225.481232 392.978333,231.969894 
	C392.890717,237.875595 389.921692,240.939957 384.071533,240.971832 
	C368.762054,241.055267 353.451569,241.048889 338.141998,240.976593 
	C331.975586,240.947479 329.043091,237.942612 329.018646,231.701157 
	C328.959351,216.557861 328.957428,201.414017 329.019806,186.270737 
	C329.045502,180.028931 331.981110,177.049225 338.163666,177.021866 
	C353.473297,176.954117 368.783722,176.946014 384.093231,177.027466 
	C389.939209,177.058563 392.913605,180.119415 392.977173,186.039154 
	C393.068298,194.525208 393.000977,203.012970 393.001312,211.999985 
M363.492523,193.001678 
	C357.398224,193.001678 351.303894,193.001678 345.292480,193.001678 
	C345.292480,203.985550 345.292480,214.385880 345.292480,224.707291 
	C355.986084,224.707291 366.386322,224.707291 376.707092,224.707291 
	C376.707092,214.013504 376.707092,203.613159 376.707092,193.001678 
	C372.442474,193.001678 368.465851,193.001678 363.492523,193.001678 
z"/>
<path fill="orangered" opacity="1.000000" stroke="none" 
	d="
M172.012848,241.001343 
	C168.187408,240.998734 164.855682,241.091263 161.531570,240.971878 
	C156.182449,240.779785 153.083099,237.875366 153.044846,232.587158 
	C152.931747,216.944839 152.940018,201.300812 153.037170,185.658295 
	C153.071762,180.086685 156.156876,177.063187 161.778198,177.031693 
	C177.254425,176.944962 192.731750,176.946304 208.207993,177.031372 
	C213.815033,177.062195 216.926132,180.099838 216.962296,185.655045 
	C217.063019,201.131104 217.055984,216.608551 216.970871,232.084778 
	C216.938736,237.929764 213.859985,240.933472 207.956451,240.975327 
	C196.141479,241.059097 184.325516,241.000916 172.012848,241.001343 
M200.998322,214.476624 
	C200.998322,207.382507 200.998322,200.288376 200.998322,193.298492 
	C190.003036,193.298492 179.602219,193.298492 169.299393,193.298492 
	C169.299393,203.998734 169.299393,214.399734 169.299393,224.699677 
	C180.000549,224.699677 190.401535,224.699677 200.998322,224.699677 
	C200.998322,221.423721 200.998322,218.444778 200.998322,214.476624 
z"/>
<path fill="orangered" opacity="1.000000" stroke="none" 
	d="
M86.004959,241.001343 
	C81.512276,240.998703 77.515060,241.097763 73.525246,240.968430 
	C68.179657,240.795105 65.082619,237.870682 65.044571,232.580978 
	C64.932053,216.938873 64.939781,201.295059 65.037399,185.652756 
	C65.072159,180.084152 68.160217,177.062805 73.783562,177.031448 
	C89.259583,176.945175 104.736694,176.946167 120.212730,177.031570 
	C125.817444,177.062500 128.926468,180.102402 128.962479,185.659592 
	C129.062820,201.135437 129.056183,216.612686 128.970764,232.088699 
	C128.938507,237.931778 125.858124,240.930527 119.952705,240.975601 
	C108.803627,241.060730 97.653442,241.000916 86.004959,241.001343 
M112.998314,216.455185 
	C112.998314,208.696854 112.998314,200.938522 112.998314,193.306549 
	C101.987404,193.306549 91.585808,193.306549 81.307983,193.306549 
	C81.307983,204.015503 81.307983,214.417160 81.307983,224.690430 
	C92.018234,224.690430 102.419769,224.690430 112.998314,224.690430 
	C112.998314,222.070206 112.998314,219.754333 112.998314,216.455185 
z"/>
<path fill="orangered" opacity="1.000000" stroke="none" 
	d="
M253.170700,352.998688 
	C267.461639,352.998718 281.276672,352.972870 295.091553,353.009521 
	C302.207581,353.028412 304.976196,355.837860 304.991699,363.037354 
	C305.023193,377.684479 305.024536,392.331787 304.991150,406.978912 
	C304.974762,414.158997 302.189117,416.972717 295.062714,416.990204 
	C280.249146,417.026520 265.435303,417.035339 250.621826,416.985657 
	C243.839264,416.962891 241.028625,414.074585 241.010178,407.179413 
	C240.972382,393.031647 240.996231,378.883698 240.999557,364.735840 
	C241.001801,355.168915 243.133881,353.033081 253.170700,352.998688 
M257.001648,387.492554 
	C257.001648,391.925537 257.001648,396.358521 257.001648,400.711487 
	C267.977386,400.711487 278.377625,400.711487 288.711212,400.711487 
	C288.711212,390.022034 288.711212,379.621765 288.711212,369.289062 
	C278.021454,369.289062 267.621185,369.289062 257.001648,369.289062 
	C257.001648,375.215332 257.001648,380.855896 257.001648,387.492554 
z"/>
<path fill="orangered" opacity="1.000000" stroke="none" 
	d="
M400.997528,357.014099 
	C400.997528,352.871582 400.997528,349.225983 400.997528,345.289856 
	C406.279633,345.289856 411.351807,345.289856 417.002472,345.289856 
	C417.002472,349.639404 417.002472,354.075409 417.002472,358.511414 
	C417.002472,367.344360 416.986938,376.177368 417.008240,385.010284 
	C417.021118,390.348328 416.414520,395.317627 421.589783,399.721344 
	C426.472595,403.876282 426.064423,411.749420 422.648834,417.317810 
	C419.281006,422.808258 412.686981,425.668915 406.365540,424.928558 
	C404.393799,424.697601 401.818481,425.201355 400.285645,426.372040 
	C391.552643,433.041473 383.051361,440.014252 374.066498,447.208069 
	C370.729736,443.075989 367.436096,438.997345 364.025482,434.773804 
	C372.926880,427.641846 381.570129,420.876312 389.979370,413.831421 
	C391.487488,412.567993 392.093903,410.181641 393.003082,408.260010 
	C394.670441,404.735809 395.649078,400.666290 398.060974,397.782715 
	C400.018402,395.442596 401.098572,393.533813 401.057098,390.508820 
	C400.906250,379.511353 400.997528,368.510590 400.997528,357.014099 
z"/>
<path fill="white" opacity="1.000000" stroke="none" 
	d="
M257.001648,201.053162 
	C257.001648,198.246399 257.001648,195.931290 257.001648,193.309555 
	C267.580200,193.309555 277.981750,193.309555 288.692017,193.309555 
	C288.692017,203.582840 288.692017,213.984497 288.692017,224.693451 
	C278.414185,224.693451 268.012573,224.693451 257.001648,224.693451 
	C257.001648,217.061462 257.001648,209.303131 257.001648,201.053162 
z"/>
<path fill="white" opacity="1.000000" stroke="none" 
	d="
M286.799133,281.004059 
	C287.854218,282.104553 288.906830,283.196167 288.922577,284.302490 
	C289.055237,293.626923 288.998199,302.954071 288.998199,312.639282 
	C278.525482,312.639282 268.120453,312.639282 257.357666,312.639282 
	C257.357666,302.519104 257.357666,292.114227 257.357666,281.001984 
	C266.824860,281.001984 276.570465,281.001984 286.799133,281.004059 
z"/>
<path fill="white" opacity="1.000000" stroke="none" 
	d="
M175.089874,281.001648 
	C183.878128,281.001648 192.178085,281.001648 200.736725,281.001648 
	C200.736725,291.675659 200.736725,302.076385 200.736725,312.738770 
	C190.320175,312.738770 179.919464,312.738770 169.259216,312.738770 
	C169.259216,302.316071 169.259216,291.915436 169.259216,281.001648 
	C171.055252,281.001648 172.828415,281.001648 175.089874,281.001648 
z"/>
<path fill="white" opacity="1.000000" stroke="none" 
	d="
M97.000000,312.998352 
	C91.526428,312.998352 86.551353,312.998352 81.290413,312.998352 
	C81.290413,302.381622 81.290413,291.981445 81.290413,281.290192 
	C91.618797,281.290192 102.019051,281.290192 112.709991,281.290192 
	C112.709991,291.619232 112.709991,302.019470 112.709991,312.998352 
	C107.691330,312.998352 102.594910,312.998352 97.000000,312.998352 
z"/>
<path fill="white" opacity="1.000000" stroke="none" 
	d="
M81.001686,380.020294 
	C81.001686,376.212341 81.001686,372.901276 81.001686,369.296814 
	C91.605309,369.296814 102.005943,369.296814 112.703659,369.296814 
	C112.703659,379.606293 112.703659,390.006927 112.703659,400.704163 
	C102.392708,400.704163 91.992096,400.704163 81.001686,400.704163 
	C81.001686,394.039978 81.001686,387.278595 81.001686,380.020294 
z"/>
<path fill="white" opacity="1.000000" stroke="none" 
	d="
M200.998322,374.111572 
	C200.998322,383.232361 200.998322,391.863159 200.998322,400.744568 
	C190.308380,400.744568 179.907959,400.744568 169.253693,400.744568 
	C169.253693,390.304779 169.253693,379.904388 169.253693,369.251953 
	C179.698654,369.251953 190.098892,369.251953 200.998322,369.251953 
	C200.998322,370.738861 200.998322,372.180237 200.998322,374.111572 
z"/>
<path fill="white" opacity="1.000000" stroke="none" 
	d="
M363.990875,193.001678 
	C368.465851,193.001678 372.442474,193.001678 376.707092,193.001678 
	C376.707092,203.613159 376.707092,214.013504 376.707092,224.707291 
	C366.386322,224.707291 355.986084,224.707291 345.292480,224.707291 
	C345.292480,214.385880 345.292480,203.985550 345.292480,193.001678 
	C351.303894,193.001678 357.398224,193.001678 363.990875,193.001678 
z"/>
<path fill="white" opacity="1.000000" stroke="none" 
	d="
M200.998322,214.971222 
	C200.998322,218.444778 200.998322,221.423721 200.998322,224.699677 
	C190.401535,224.699677 180.000549,224.699677 169.299393,224.699677 
	C169.299393,214.399734 169.299393,203.998734 169.299393,193.298492 
	C179.602219,193.298492 190.003036,193.298492 200.998322,193.298492 
	C200.998322,200.288376 200.998322,207.382507 200.998322,214.971222 
z"/>
<path fill="white" opacity="1.000000" stroke="none" 
	d="
M112.998314,216.946838 
	C112.998314,219.754333 112.998314,222.070206 112.998314,224.690430 
	C102.419769,224.690430 92.018234,224.690430 81.307983,224.690430 
	C81.307983,214.417160 81.307983,204.015503 81.307983,193.306549 
	C91.585808,193.306549 101.987404,193.306549 112.998314,193.306549 
	C112.998314,200.938522 112.998314,208.696854 112.998314,216.946838 
z"/>
<path fill="white" opacity="1.000000" stroke="none" 
	d="
M257.001648,386.994507 
	C257.001648,380.855896 257.001648,375.215332 257.001648,369.289062 
	C267.621185,369.289062 278.021454,369.289062 288.711212,369.289062 
	C288.711212,379.621765 288.711212,390.022034 288.711212,400.711487 
	C278.377625,400.711487 267.977386,400.711487 257.001648,400.711487 
	C257.001648,396.358521 257.001648,391.925537 257.001648,386.994507 
z"/>
</svg>