<svg width="81" height="81" viewBox="0 0 81 81" fill="none" xmlns="http://www.w3.org/2000/svg">
<mask id="mask0_3574_41612" style="mask-type:alpha" maskUnits="userSpaceOnUse" x="9" y="17" width="64" height="45">
<path d="M27.8125 41.3125L9.8125 29.3125V21.3125H16.8125L29.3125 23.3125L38.3125 21.3125L47.8125 17.3125H58.3125L71.8125 22.3125L72.8125 31.8125L67.8125 38.8125L60.3125 39.3125L56.8125 39.8125L65.8125 48.8125C66.6125 54.0125 63.1458 53.3125 61.3125 52.3125L52.3125 44.3125L51.3125 49.3125L52.8125 54.8125L54.3125 61.8125H30.8125V54.8125V46.3125L19.8125 52.8125C15.4125 53.2125 15.9792 49.9792 16.8125 48.3125L27.8125 41.3125Z" fill="#D9D9D9"/>
</mask>
<g mask="url(#mask0_3574_41612)">
<path fill-rule="evenodd" clip-rule="evenodd" d="M51.4487 19.4068C50.2275 19.5094 49.5564 19.8993 49.1478 20.7435C48.7829 21.497 48.7984 22.2065 49.1964 22.9912C49.3744 23.342 49.5203 23.6729 49.5206 23.7263C49.5209 23.7798 48.9959 23.8236 48.3539 23.8236C47.3596 23.8236 47.1484 23.862 46.9274 24.083C46.5998 24.4106 46.5945 25.0008 46.9156 25.3979C47.1512 25.6892 47.2519 25.7062 48.9818 25.7461L50.8002 25.7883L51.0106 26.3945C51.2113 26.9735 51.4404 28.7517 51.3142 28.7517C51.281 28.7517 50.9369 28.5143 50.5497 28.224C49.0356 27.0895 46.9694 26.3494 44.9224 26.2082C41.5732 25.9771 38.1658 27.4329 36.0155 30.0139L35.45 30.6924L31.7174 30.6947C28.7598 30.6965 27.892 30.6583 27.5382 30.5106C27.2927 30.408 25.4575 29.0101 23.4599 27.404C21.4625 25.7981 19.7058 24.4186 19.5566 24.3387C19.3702 24.239 18.2413 24.2067 15.955 24.2355C12.8198 24.2751 12.5939 24.2941 12.094 24.5617C11.4285 24.9178 10.8197 25.6021 10.614 26.2254C10.3689 26.9684 10.5033 28.1165 10.9069 28.7264C11.3774 29.4373 13.8284 31.2158 14.3376 31.2158C14.9986 31.2158 15.4521 30.5089 15.2046 29.8642C15.1613 29.751 14.5467 29.2388 13.8392 28.7259C12.4951 27.7518 12.2888 27.4563 12.5113 26.8234C12.722 26.2241 13.0524 26.162 16.0363 26.1599L18.7992 26.158L22.4559 29.095C24.4671 30.7104 26.3751 32.1549 26.6961 32.3048C27.2457 32.5617 27.5269 32.5797 31.5289 32.6166L35.7783 32.6555L40.5325 34.471C43.1474 35.4694 45.3425 36.3207 45.4104 36.3627C45.562 36.4565 44.395 37.2161 43.4258 37.6544C42.1317 38.2398 40.79 38.4731 38.082 38.5839L35.5608 38.6871L34.5976 39.1477C33.6463 39.6028 32.7677 40.3301 32.132 41.1888L31.8056 41.6296L27.6622 38.6512C25.3833 37.013 22.1231 34.6698 20.4172 33.4442C18.147 31.813 17.2171 31.2158 16.948 31.2158C16.0872 31.2158 15.7487 32.306 16.4184 32.9218C16.6145 33.1021 19.2401 35.0143 22.253 37.1711C25.2658 39.3279 27.7592 41.1382 27.7937 41.1941C27.8283 41.2499 27.4089 41.5691 26.8617 41.9035L25.867 42.5112L25.5359 42.2456C23.2483 40.4108 21.1696 39.6473 18.461 39.6473C13.5667 39.6473 9.48646 42.7542 8.12306 47.5195C7.70689 48.9735 7.70936 51.5945 8.12825 53.0593C8.50486 54.3767 9.394 56.0925 10.2231 57.1021C11.5695 58.7416 13.744 60.1148 15.8672 60.6667C17.3088 61.0413 19.6131 61.0413 21.0547 60.6667C24.8953 59.6686 27.799 56.7633 28.844 52.8734C29.0931 51.9461 29.1694 49.5653 28.9902 48.3137L28.885 47.5795L29.9628 46.9159L31.0407 46.2524L31.1055 50.4385L31.1703 54.6244L31.5808 55.4907C32.1171 56.6227 32.8943 57.4491 33.8778 57.9331C34.9452 58.4583 35.8087 58.5782 38.5301 58.5791C40.7453 58.5799 40.8321 58.5896 40.8321 58.8392C40.8321 59.092 40.7456 59.0986 37.4602 59.0986C34.2612 59.0986 34.075 59.112 33.8289 59.358C33.5012 59.6857 33.496 60.2759 33.8173 60.6729L34.0651 60.9791L37.87 61.0173C39.9628 61.0384 41.8078 61.0223 41.9701 60.9817C42.581 60.8285 42.7774 60.4663 42.7774 59.4923V58.5892L47.4326 58.5521C51.7995 58.5174 52.1049 58.4997 52.3608 58.268C52.7738 57.8939 52.6978 57.3565 52.0565 56.1148C51.7392 55.5003 51.32 54.4758 51.1252 53.8382C50.8006 52.7758 50.7711 52.5006 50.7711 50.5392C50.7711 48.5789 50.8009 48.3015 51.1257 47.2322C51.4728 46.0898 52.2958 44.2484 52.5217 44.1087C52.5843 44.07 52.938 44.3268 53.3077 44.6796L53.9799 45.3207L53.6407 46.0819C53.0101 47.4973 52.8403 48.3876 52.8403 50.2799C52.8403 51.5642 52.9023 52.2551 53.0731 52.8734C53.9546 56.0656 55.9135 58.472 58.7756 59.8783C60.3577 60.6556 61.6007 60.9363 63.4625 60.9363C65.3289 60.9363 66.5676 60.6556 68.164 59.871C72.494 57.7433 74.902 52.8692 73.9314 48.1973C73.6801 46.9876 72.9391 45.1436 72.5168 44.677C72.2301 44.3601 71.5078 44.3744 71.1789 44.7033C70.8366 45.0457 70.8516 45.4856 71.2312 46.2347C71.9084 47.5712 72.1524 48.6723 72.1416 50.3447C72.1332 51.6671 72.0797 52.0568 71.7863 52.9385C71.3243 54.3257 70.8235 55.1596 69.8023 56.2421C68.0413 58.109 65.9284 59.0212 63.3977 59.0071C62.0723 58.9997 60.8611 58.7291 59.7025 58.1817C56.24 56.5457 54.1505 52.5316 54.8388 48.8385C55.0033 47.9563 55.3668 46.7783 55.4747 46.7783C55.5198 46.7783 56.0968 47.3205 56.7568 47.9834L57.9568 49.1884L57.9909 50.415C58.0205 51.4801 58.0791 51.757 58.4355 52.5181C59.2546 54.2667 60.7809 55.4259 62.6858 55.7458C64.9992 56.1345 67.424 54.7944 68.4763 52.5459C69.7192 49.8896 68.4965 46.5696 65.8066 45.2971C64.9682 44.9004 63.57 44.6859 62.7158 44.8229L62.0989 44.9218L60.8353 43.7247C60.1405 43.0663 59.6117 42.486 59.6605 42.4353C59.7092 42.3845 60.1469 42.1944 60.6331 42.0125C61.9266 41.5291 64.2329 41.4484 65.6496 41.8371C66.8434 42.1645 67.7552 42.6025 68.6769 43.291C69.7404 44.0855 70.7034 43.8938 70.7034 42.8877C70.7034 42.416 70.4331 42.1028 69.4459 41.4306C66.429 39.3761 62.289 39.0507 58.9275 40.6039L57.9766 41.0433L57.4374 40.4939L56.8983 39.9445L57.1976 39.7504C57.6621 39.4491 59.128 38.8932 60.1097 38.6461C60.7722 38.4793 61.5599 38.421 63.2032 38.417L65.4078 38.4115L67.2235 36.8311C69.5335 34.8205 69.7249 34.5419 70.0875 32.6634C70.4707 30.6775 70.2215 28.3226 69.4809 26.9333C69.0451 26.1152 67.5856 24.6174 66.186 23.5515C63.0184 21.1392 59.2815 19.7851 54.7735 19.4161C53.108 19.2798 52.9672 19.2794 51.4487 19.4068ZM54.6688 21.3588C57.3545 21.5676 59.5941 22.1394 61.8342 23.188C63.0194 23.7429 65.0686 25.0756 65.9694 25.8775L66.5308 26.3773L66.1184 26.5482C65.4726 26.8158 64.4585 27.8923 64.076 28.7167C63.6248 29.689 63.5292 31.1454 63.8498 32.1647C64.1232 33.0338 64.8355 33.9931 65.6491 34.5877L66.27 35.0416L65.4937 35.7362L64.7173 36.4308L62.6633 36.4618C60.1742 36.4994 58.7518 36.8249 56.7034 37.8253C51.9394 40.1522 48.9831 44.678 48.7796 49.9556C48.6919 52.2319 49.0523 54.1794 49.9737 56.4076C50.0624 56.6221 49.6862 56.6346 43.1218 56.6346C38.6699 56.6346 35.9434 56.5846 35.5278 56.4955C34.6862 56.315 33.9374 55.763 33.481 54.9865L33.1157 54.365V49.0478C33.1157 44.1289 33.1342 43.6827 33.3628 43.0899C33.78 42.0081 35.0336 40.8706 36.0753 40.6286C36.2765 40.582 37.366 40.5201 38.4965 40.4913C42.5085 40.3889 43.8725 39.9251 47.511 37.4265C50.1211 35.6341 51.6129 34.1614 52.3574 32.6424C53.3403 30.637 53.5539 28.3296 52.9608 26.1256C52.8677 25.7794 52.8804 25.7689 53.3892 25.7689C54.7138 25.7689 55.3507 24.9937 54.7028 24.17C54.4543 23.854 54.3589 23.8305 53.1805 23.7959L51.9232 23.7588L51.3453 22.8084C50.6434 21.6545 50.6954 21.4617 51.739 21.3483C52.8441 21.228 52.9961 21.2287 54.6688 21.3588ZM68.0934 28.5248C68.308 29.2351 68.3052 32.1353 68.089 32.8693C67.9794 33.2416 67.8548 33.4198 67.7047 33.4184C67.2877 33.4144 66.4565 32.8352 66.0617 32.2734C65.7044 31.7652 65.6672 31.6174 65.6672 30.7072C65.6672 29.8125 65.7079 29.6435 66.0385 29.1665C66.3587 28.7044 67.4548 27.9736 67.8276 27.9736C67.8822 27.9736 68.0017 28.2216 68.0934 28.5248ZM45.9926 28.3064C46.5423 28.4181 47.4591 28.735 48.0297 29.0106C49.0374 29.4973 50.4584 30.533 50.7382 30.9846C50.9333 31.2996 50.3341 32.4769 49.5508 33.3174C48.8953 34.0208 47.6807 34.9767 47.4425 34.9767C47.3059 34.9767 37.7184 31.3533 37.5979 31.2561C37.5668 31.231 37.8002 30.9455 38.1167 30.622C40.074 28.6209 43.1253 27.7238 45.9926 28.3064ZM59.7345 45.3551C62.2129 47.7108 64.2956 49.7825 64.363 49.959C64.6358 50.6749 63.9109 51.4682 63.2021 51.2294C62.8749 51.1191 53.8008 42.5689 53.8008 42.3709C53.8008 42.2762 55.0916 41.0721 55.1933 41.0721C55.2126 41.0721 57.2561 42.9995 59.7345 45.3551ZM20.731 41.859C21.7303 42.136 23.1244 42.8104 23.7413 43.3154L24.0936 43.6037L22.639 44.4966L21.1844 45.3895L20.5607 45.1681C18.4117 44.405 16.3264 44.7956 14.7221 46.262C11.344 49.3494 13.0859 54.9673 17.66 55.7374C20.4714 56.2107 23.2903 54.2121 23.8771 51.3296L24.0375 50.5412L25.5289 49.6308C27.2416 48.5854 27.1782 48.5642 27.2019 50.188C27.2726 55.004 23.292 59.023 18.461 59.0131C16.6392 59.0094 15.2796 58.6035 13.7274 57.5998C12.0221 56.4971 10.7731 54.877 10.1339 52.9385C9.65415 51.4832 9.62808 49.2509 10.0743 47.8158C10.5358 46.3315 11.1812 45.2814 12.3542 44.1071C13.1813 43.2791 13.6363 42.9432 14.5055 42.5191C15.9851 41.7971 16.7794 41.6095 18.3987 41.5994C19.4008 41.593 20.0201 41.662 20.731 41.859ZM30.4453 43.0382C30.8441 43.335 31.1963 43.5991 31.2279 43.6253C31.2597 43.6515 31.1722 43.7797 31.0334 43.9101C30.8111 44.1192 20.2221 50.6497 19.4611 51.0471C19.1338 51.218 18.712 51.1339 18.3637 50.8281C18.062 50.5631 18.062 49.738 18.3637 49.4698C18.6022 49.2577 29.5542 42.4986 29.6594 42.4986C29.6928 42.4986 30.0465 42.7414 30.4453 43.0382ZM18.7852 46.766C18.7852 46.8306 18.5202 47.0386 18.1964 47.2283C16.7469 48.0779 16.1914 48.8877 16.1914 50.1515C16.1914 51.3109 16.7416 52.2241 17.7538 52.745C18.7752 53.2706 19.7244 53.1877 20.8984 52.4705C21.582 52.0531 21.5845 52.2519 20.9038 52.899C19.881 53.8714 18.1373 54.1257 16.8868 53.4848C14.3555 52.1876 14.2167 48.6487 16.6415 47.2275C17.3603 46.8063 18.7852 46.4995 18.7852 46.766ZM65.301 47.2456C67.2078 48.3391 67.6035 50.9642 66.1163 52.6538C64.7301 54.2286 62.1863 54.2336 60.8085 52.6644C60.4094 52.2099 59.9532 51.3467 60.0572 51.2428C60.0827 51.2171 60.4801 51.5356 60.9401 51.9505C62.0719 52.971 62.5128 53.1871 63.4625 53.1866C65.0784 53.1856 66.3818 51.9323 66.3797 50.3813C66.3784 49.3395 66.1569 48.8881 65.107 47.7869C64.0662 46.6954 64.1133 46.5643 65.301 47.2456ZM37.4828 51.4878C37.1348 51.8582 37.1214 52.3576 37.4484 52.762C37.6827 53.0517 37.7891 53.0704 39.429 53.11C41.0394 53.1491 41.187 53.1323 41.5158 52.8737C41.9561 52.5273 42.0016 51.8384 41.6102 51.447C41.3758 51.2127 41.1779 51.1877 39.5578 51.1877C37.8512 51.1877 37.7512 51.2022 37.4828 51.4878Z" fill="#EE2326"/>
</g>
<mask id="mask1_3574_41612" style="mask-type:alpha" maskUnits="userSpaceOnUse" x="5" y="29" width="71" height="35">
<path d="M27.8125 41.3125L9.8125 29.3125V36.3125L5.3125 41.3125L8.3125 62.8125L54.3125 63.8125L68.3125 61.8125L74.3125 57.3125L75.8125 49.8125L74.3125 44.3125L67.8125 38.8125L60.3125 39.3125L56.8125 39.8125L65.8125 48.8125C66.6125 54.0125 63.1458 53.3125 61.3125 52.3125L52.3125 44.3125L51.3125 49.3125L52.8125 54.8125L54.3125 61.8125H30.8125V54.8125V46.3125L19.8125 52.8125C15.4125 53.2125 15.9792 49.9792 16.8125 48.3125L27.8125 41.3125Z" fill="#D9D9D9"/>
</mask>
<g mask="url(#mask1_3574_41612)">
<path fill-rule="evenodd" clip-rule="evenodd" d="M51.4487 19.4068C50.2275 19.5094 49.5564 19.8993 49.1478 20.7435C48.7829 21.497 48.7984 22.2065 49.1964 22.9912C49.3744 23.342 49.5203 23.6729 49.5206 23.7263C49.5209 23.7798 48.9959 23.8236 48.3539 23.8236C47.3596 23.8236 47.1484 23.862 46.9274 24.083C46.5998 24.4106 46.5945 25.0008 46.9156 25.3979C47.1512 25.6892 47.2519 25.7062 48.9818 25.7461L50.8002 25.7883L51.0106 26.3945C51.2113 26.9735 51.4404 28.7517 51.3142 28.7517C51.281 28.7517 50.9369 28.5143 50.5497 28.224C49.0356 27.0895 46.9694 26.3494 44.9224 26.2082C41.5732 25.9771 38.1658 27.4329 36.0155 30.0139L35.45 30.6924L31.7174 30.6947C28.7598 30.6965 27.892 30.6583 27.5382 30.5106C27.2927 30.408 25.4575 29.0101 23.4599 27.404C21.4625 25.7981 19.7058 24.4186 19.5566 24.3387C19.3702 24.239 18.2413 24.2067 15.955 24.2355C12.8198 24.2751 12.5939 24.2941 12.094 24.5617C11.4285 24.9178 10.8197 25.6021 10.614 26.2254C10.3689 26.9684 10.5033 28.1165 10.9069 28.7264C11.3774 29.4373 13.8284 31.2158 14.3376 31.2158C14.9986 31.2158 15.4521 30.5089 15.2046 29.8642C15.1613 29.751 14.5467 29.2388 13.8392 28.7259C12.4951 27.7518 12.2888 27.4563 12.5113 26.8234C12.722 26.2241 13.0524 26.162 16.0363 26.1599L18.7992 26.158L22.4559 29.095C24.4671 30.7104 26.3751 32.1549 26.6961 32.3048C27.2457 32.5617 27.5269 32.5797 31.5289 32.6166L35.7783 32.6555L40.5325 34.471C43.1474 35.4694 45.3425 36.3207 45.4104 36.3627C45.562 36.4565 44.395 37.2161 43.4258 37.6544C42.1317 38.2398 40.79 38.4731 38.082 38.5839L35.5608 38.6871L34.5976 39.1477C33.6463 39.6028 32.7677 40.3301 32.132 41.1888L31.8056 41.6296L27.6622 38.6512C25.3833 37.013 22.1231 34.6698 20.4172 33.4442C18.147 31.813 17.2171 31.2158 16.948 31.2158C16.0872 31.2158 15.7487 32.306 16.4184 32.9218C16.6145 33.1021 19.2401 35.0143 22.253 37.1711C25.2658 39.3279 27.7592 41.1382 27.7937 41.1941C27.8283 41.2499 27.4089 41.5691 26.8617 41.9035L25.867 42.5112L25.5359 42.2456C23.2483 40.4108 21.1696 39.6473 18.461 39.6473C13.5667 39.6473 9.48646 42.7542 8.12306 47.5195C7.70689 48.9735 7.70936 51.5945 8.12825 53.0593C8.50486 54.3767 9.394 56.0925 10.2231 57.1021C11.5695 58.7416 13.744 60.1148 15.8672 60.6667C17.3088 61.0413 19.6131 61.0413 21.0547 60.6667C24.8953 59.6686 27.799 56.7633 28.844 52.8734C29.0931 51.9461 29.1694 49.5653 28.9902 48.3137L28.885 47.5795L29.9628 46.9159L31.0407 46.2524L31.1055 50.4385L31.1703 54.6244L31.5808 55.4907C32.1171 56.6227 32.8943 57.4491 33.8778 57.9331C34.9452 58.4583 35.8087 58.5782 38.5301 58.5791C40.7453 58.5799 40.8321 58.5896 40.8321 58.8392C40.8321 59.092 40.7456 59.0986 37.4602 59.0986C34.2612 59.0986 34.075 59.112 33.8289 59.358C33.5012 59.6857 33.496 60.2759 33.8173 60.6729L34.0651 60.9791L37.87 61.0173C39.9628 61.0384 41.8078 61.0223 41.9701 60.9817C42.581 60.8285 42.7774 60.4663 42.7774 59.4923V58.5892L47.4326 58.5521C51.7995 58.5174 52.1049 58.4997 52.3608 58.268C52.7738 57.8939 52.6978 57.3565 52.0565 56.1148C51.7392 55.5003 51.32 54.4758 51.1252 53.8382C50.8006 52.7758 50.7711 52.5006 50.7711 50.5392C50.7711 48.5789 50.8009 48.3015 51.1257 47.2322C51.4728 46.0898 52.2958 44.2484 52.5217 44.1087C52.5843 44.07 52.938 44.3268 53.3077 44.6796L53.9799 45.3207L53.6407 46.0819C53.0101 47.4973 52.8403 48.3876 52.8403 50.2799C52.8403 51.5642 52.9023 52.2551 53.0731 52.8734C53.9546 56.0656 55.9135 58.472 58.7756 59.8783C60.3577 60.6556 61.6007 60.9363 63.4625 60.9363C65.3289 60.9363 66.5676 60.6556 68.164 59.871C72.494 57.7433 74.902 52.8692 73.9314 48.1973C73.6801 46.9876 72.9391 45.1436 72.5168 44.677C72.2301 44.3601 71.5078 44.3744 71.1789 44.7033C70.8366 45.0457 70.8516 45.4856 71.2312 46.2347C71.9084 47.5712 72.1524 48.6723 72.1416 50.3447C72.1332 51.6671 72.0797 52.0568 71.7863 52.9385C71.3243 54.3257 70.8235 55.1596 69.8023 56.2421C68.0413 58.109 65.9284 59.0212 63.3977 59.0071C62.0723 58.9997 60.8611 58.7291 59.7025 58.1817C56.24 56.5457 54.1505 52.5316 54.8388 48.8385C55.0033 47.9563 55.3668 46.7783 55.4747 46.7783C55.5198 46.7783 56.0968 47.3205 56.7568 47.9834L57.9568 49.1884L57.9909 50.415C58.0205 51.4801 58.0791 51.757 58.4355 52.5181C59.2546 54.2667 60.7809 55.4259 62.6858 55.7458C64.9992 56.1345 67.424 54.7944 68.4763 52.5459C69.7192 49.8896 68.4965 46.5696 65.8066 45.2971C64.9682 44.9004 63.57 44.6859 62.7158 44.8229L62.0989 44.9218L60.8353 43.7247C60.1405 43.0663 59.6117 42.486 59.6605 42.4353C59.7092 42.3845 60.1469 42.1944 60.6331 42.0125C61.9266 41.5291 64.2329 41.4484 65.6496 41.8371C66.8434 42.1645 67.7552 42.6025 68.6769 43.291C69.7404 44.0855 70.7034 43.8938 70.7034 42.8877C70.7034 42.416 70.4331 42.1028 69.4459 41.4306C66.429 39.3761 62.289 39.0507 58.9275 40.6039L57.9766 41.0433L57.4374 40.4939L56.8983 39.9445L57.1976 39.7504C57.6621 39.4491 59.128 38.8932 60.1097 38.6461C60.7722 38.4793 61.5599 38.421 63.2032 38.417L65.4078 38.4115L67.2235 36.8311C69.5335 34.8205 69.7249 34.5419 70.0875 32.6634C70.4707 30.6775 70.2215 28.3226 69.4809 26.9333C69.0451 26.1152 67.5856 24.6174 66.186 23.5515C63.0184 21.1392 59.2815 19.7851 54.7735 19.4161C53.108 19.2798 52.9672 19.2794 51.4487 19.4068ZM54.6688 21.3588C57.3545 21.5676 59.5941 22.1394 61.8342 23.188C63.0194 23.7429 65.0686 25.0756 65.9694 25.8775L66.5308 26.3773L66.1184 26.5482C65.4726 26.8158 64.4585 27.8923 64.076 28.7167C63.6248 29.689 63.5292 31.1454 63.8498 32.1647C64.1232 33.0338 64.8355 33.9931 65.6491 34.5877L66.27 35.0416L65.4937 35.7362L64.7173 36.4308L62.6633 36.4618C60.1742 36.4994 58.7518 36.8249 56.7034 37.8253C51.9394 40.1522 48.9831 44.678 48.7796 49.9556C48.6919 52.2319 49.0523 54.1794 49.9737 56.4076C50.0624 56.6221 49.6862 56.6346 43.1218 56.6346C38.6699 56.6346 35.9434 56.5846 35.5278 56.4955C34.6862 56.315 33.9374 55.763 33.481 54.9865L33.1157 54.365V49.0478C33.1157 44.1289 33.1342 43.6827 33.3628 43.0899C33.78 42.0081 35.0336 40.8706 36.0753 40.6286C36.2765 40.582 37.366 40.5201 38.4965 40.4913C42.5085 40.3889 43.8725 39.9251 47.511 37.4265C50.1211 35.6341 51.6129 34.1614 52.3574 32.6424C53.3403 30.637 53.5539 28.3296 52.9608 26.1256C52.8677 25.7794 52.8804 25.7689 53.3892 25.7689C54.7138 25.7689 55.3507 24.9937 54.7028 24.17C54.4543 23.854 54.3589 23.8305 53.1805 23.7959L51.9232 23.7588L51.3453 22.8084C50.6434 21.6545 50.6954 21.4617 51.739 21.3483C52.8441 21.228 52.9961 21.2287 54.6688 21.3588ZM68.0934 28.5248C68.308 29.2351 68.3052 32.1353 68.089 32.8693C67.9794 33.2416 67.8548 33.4198 67.7047 33.4184C67.2877 33.4144 66.4565 32.8352 66.0617 32.2734C65.7044 31.7652 65.6672 31.6174 65.6672 30.7072C65.6672 29.8125 65.7079 29.6435 66.0385 29.1665C66.3587 28.7044 67.4548 27.9736 67.8276 27.9736C67.8822 27.9736 68.0017 28.2216 68.0934 28.5248ZM45.9926 28.3064C46.5423 28.4181 47.4591 28.735 48.0297 29.0106C49.0374 29.4973 50.4584 30.533 50.7382 30.9846C50.9333 31.2996 50.3341 32.4769 49.5508 33.3174C48.8953 34.0208 47.6807 34.9767 47.4425 34.9767C47.3059 34.9767 37.7184 31.3533 37.5979 31.2561C37.5668 31.231 37.8002 30.9455 38.1167 30.622C40.074 28.6209 43.1253 27.7238 45.9926 28.3064ZM59.7345 45.3551C62.2129 47.7108 64.2956 49.7825 64.363 49.959C64.6358 50.6749 63.9109 51.4682 63.2021 51.2294C62.8749 51.1191 53.8008 42.5689 53.8008 42.3709C53.8008 42.2762 55.0916 41.0721 55.1933 41.0721C55.2126 41.0721 57.2561 42.9995 59.7345 45.3551ZM20.731 41.859C21.7303 42.136 23.1244 42.8104 23.7413 43.3154L24.0936 43.6037L22.639 44.4966L21.1844 45.3895L20.5607 45.1681C18.4117 44.405 16.3264 44.7956 14.7221 46.262C11.344 49.3494 13.0859 54.9673 17.66 55.7374C20.4714 56.2107 23.2903 54.2121 23.8771 51.3296L24.0375 50.5412L25.5289 49.6308C27.2416 48.5854 27.1782 48.5642 27.2019 50.188C27.2726 55.004 23.292 59.023 18.461 59.0131C16.6392 59.0094 15.2796 58.6035 13.7274 57.5998C12.0221 56.4971 10.7731 54.877 10.1339 52.9385C9.65415 51.4832 9.62808 49.2509 10.0743 47.8158C10.5358 46.3315 11.1812 45.2814 12.3542 44.1071C13.1813 43.2791 13.6363 42.9432 14.5055 42.5191C15.9851 41.7971 16.7794 41.6095 18.3987 41.5994C19.4008 41.593 20.0201 41.662 20.731 41.859ZM30.4453 43.0382C30.8441 43.335 31.1963 43.5991 31.2279 43.6253C31.2597 43.6515 31.1722 43.7797 31.0334 43.9101C30.8111 44.1192 20.2221 50.6497 19.4611 51.0471C19.1338 51.218 18.712 51.1339 18.3637 50.8281C18.062 50.5631 18.062 49.738 18.3637 49.4698C18.6022 49.2577 29.5542 42.4986 29.6594 42.4986C29.6928 42.4986 30.0465 42.7414 30.4453 43.0382ZM18.7852 46.766C18.7852 46.8306 18.5202 47.0386 18.1964 47.2283C16.7469 48.0779 16.1914 48.8877 16.1914 50.1515C16.1914 51.3109 16.7416 52.2241 17.7538 52.745C18.7752 53.2706 19.7244 53.1877 20.8984 52.4705C21.582 52.0531 21.5845 52.2519 20.9038 52.899C19.881 53.8714 18.1373 54.1257 16.8868 53.4848C14.3555 52.1876 14.2167 48.6487 16.6415 47.2275C17.3603 46.8063 18.7852 46.4995 18.7852 46.766ZM65.301 47.2456C67.2078 48.3391 67.6035 50.9642 66.1163 52.6538C64.7301 54.2286 62.1863 54.2336 60.8085 52.6644C60.4094 52.2099 59.9532 51.3467 60.0572 51.2428C60.0827 51.2171 60.4801 51.5356 60.9401 51.9505C62.0719 52.971 62.5128 53.1871 63.4625 53.1866C65.0784 53.1856 66.3818 51.9323 66.3797 50.3813C66.3784 49.3395 66.1569 48.8881 65.107 47.7869C64.0662 46.6954 64.1133 46.5643 65.301 47.2456ZM37.4828 51.4878C37.1348 51.8582 37.1214 52.3576 37.4484 52.762C37.6827 53.0517 37.7891 53.0704 39.429 53.11C41.0394 53.1491 41.187 53.1323 41.5158 52.8737C41.9561 52.5273 42.0016 51.8384 41.6102 51.447C41.3758 51.2127 41.1779 51.1877 39.5578 51.1877C37.8512 51.1877 37.7512 51.2022 37.4828 51.4878Z" fill="#303030"/>
</g>
</svg>
