<svg version="1.1" id="Layer_1" xmlns="http://www.w3.org/2000/svg" xmlns:xlink="http://www.w3.org/1999/xlink" x="0px" y="0px"
	 width="100%" viewBox="0 0 512 512" enable-background="new 0 0 512 512" xml:space="preserve">
<path fill="orangered" opacity="1.000000" stroke="none" 
	d="
M301.804932,15.857145 
	C335.149963,22.975796 365.169586,36.438904 391.697418,57.220867 
	C434.802216,90.989235 462.189514,134.663330 473.326141,188.380325 
	C475.487915,198.807343 476.893799,209.347473 477.290588,219.991638 
	C477.387817,222.600388 478.131226,224.212433 480.525635,225.541779 
	C499.077087,235.841400 508.225983,251.777710 508.318451,272.914093 
	C508.400055,291.577057 508.431122,310.241211 508.315521,328.903778 
	C508.191986,348.844360 499.444031,364.113495 482.487823,374.447754 
	C478.966888,376.593658 477.853455,378.889038 477.860382,382.810303 
	C477.884491,396.434814 478.726868,410.120056 475.348083,423.558746 
	C467.516205,454.708954 437.993011,478.047180 405.886566,478.303955 
	C394.889191,478.391907 383.890686,478.353943 372.892700,478.342773 
	C370.664215,478.340485 368.732086,478.409637 367.526031,480.912018 
	C359.908539,496.717255 346.656067,502.993011 329.757202,502.847778 
	C317.766846,502.744751 305.779297,503.192230 293.784424,502.405548 
	C275.524689,501.207977 260.351532,485.938599 260.018982,466.641602 
	C259.696289,447.914673 271.723480,432.636261 289.659607,429.946106 
	C306.782623,427.377991 324.268646,427.621490 341.446747,429.953857 
	C352.947815,431.515503 361.603943,438.470764 366.702637,449.100128 
	C368.234772,452.294159 370.008575,453.322662 373.549896,453.223358 
	C385.521088,452.887604 397.474335,453.982025 409.491302,452.901276 
	C432.135284,450.864807 451.934448,430.528381 452.620056,407.710419 
	C452.840179,400.384766 452.583221,393.045685 452.729614,385.716461 
	C452.785217,382.933014 451.852112,381.718384 449.060577,380.880127 
	C430.523224,375.313446 421.942474,363.519531 421.925934,343.975494 
	C421.901428,314.980743 421.980042,285.985657 421.866852,256.991302 
	C421.787842,236.743744 432.591003,224.247330 448.137238,220.423737 
	C451.234802,219.661896 451.940674,217.885300 451.736786,214.977249 
	C450.494324,197.256897 446.928528,179.958481 440.310242,163.549973 
	C413.070465,96.015396 363.852600,53.657825 292.322571,39.793587 
	C195.681061,21.062153 99.922348,79.405937 70.390640,173.363190 
	C66.197159,186.705032 63.316135,200.350449 62.237713,214.350159 
	C61.962418,217.923950 63.005753,219.677689 66.628014,220.744476 
	C82.852737,225.522812 91.908676,237.480530 92.022926,254.833313 
	C92.223694,285.326385 92.257790,315.823761 91.968826,346.315643 
	C91.775497,366.715759 77.491371,381.836334 58.321827,381.840271 
	C31.132551,381.845825 11.115798,362.667755 6.642773,339.555939 
	C5.585682,334.093994 5.670643,328.631500 5.666593,323.144623 
	C5.653799,305.814423 5.432722,288.480377 5.721972,271.154999 
	C6.047476,251.658188 14.718250,236.630341 31.495287,226.648315 
	C35.229248,224.426682 36.569290,222.132355 36.870808,217.731964 
	C39.934135,173.025223 54.910370,132.661041 82.388672,97.198219 
	C108.322632,63.728497 141.231354,39.514755 181.022293,24.883554 
	C212.444794,13.329448 244.868484,9.383445 278.211212,12.471874 
	C286.008972,13.194154 293.679779,14.555124 301.804932,15.857145 
M482.570831,335.939880 
	C482.921600,333.642487 483.567200,331.346344 483.576630,329.047546 
	C483.654572,310.070862 483.827942,291.090424 483.540314,272.117706 
	C483.324738,257.896362 474.166809,247.331314 460.529022,244.623535 
	C452.737610,243.076553 447.356171,246.715363 447.340363,253.878693 
	C447.271667,285.007477 447.279297,316.136627 447.357697,347.265411 
	C447.373199,353.424896 450.943878,356.658264 457.135773,356.679688 
	C468.304443,356.718323 478.048126,349.022430 482.570831,335.939880 
M30.403160,283.519165 
	C30.400057,298.183533 30.293400,312.848846 30.422832,327.512054 
	C30.553499,342.314972 39.123379,353.320618 52.620655,356.277893 
	C62.278378,358.393890 66.905746,353.433746 66.826057,345.561859 
	C66.520744,315.403076 66.728317,285.239227 66.701096,255.077347 
	C66.694061,247.280350 62.292263,243.466629 54.604252,244.409454 
	C42.387238,245.907669 33.037941,255.310669 31.126850,267.582092 
	C30.349619,272.572845 30.494009,277.540619 30.403160,283.519165 
M343.573517,459.040131 
	C341.154175,455.661072 337.842377,454.210541 333.716583,454.226288 
	C321.581512,454.272552 309.445465,454.158203 297.311157,454.263977 
	C290.041168,454.327332 285.435028,458.751617 285.285431,465.436707 
	C285.135620,472.129974 290.049805,477.488831 297.047607,477.601868 
	C309.179626,477.797791 321.321259,477.844025 333.451141,477.588379 
	C343.306061,477.380707 348.242157,468.710602 343.573517,459.040131 
z"/>
<path fill="orangered" opacity="1.000000" stroke="none" 
	d="
M365.603882,138.318542 
	C379.642334,149.412048 386.122955,163.832626 386.186920,181.146881 
	C386.308777,214.139252 386.292206,247.132507 386.212402,280.125122 
	C386.134521,312.323700 363.953064,334.289978 331.682220,334.301147 
	C312.019836,334.307953 292.356995,334.379974 272.695557,334.245392 
	C269.088379,334.220673 266.453918,335.250610 263.892029,337.842773 
	C250.539581,351.352844 237.119446,364.799957 223.515930,378.056641 
	C213.108688,388.198578 199.219193,388.852295 188.774246,379.960022 
	C182.713501,374.800201 179.901398,367.991577 179.722244,360.138916 
	C179.566452,353.310577 179.545670,346.471863 179.743805,339.645813 
	C179.848969,336.022339 178.927246,334.550476 174.889999,334.017426 
	C151.123856,330.879608 134.425354,316.099823 129.234299,294.016083 
	C128.284866,289.977051 127.740860,285.844421 127.743721,281.654266 
	C127.766670,247.994949 127.666489,214.335281 127.790482,180.676407 
	C127.883377,155.460159 143.471054,135.345306 167.265320,129.396133 
	C171.793228,128.264038 176.421906,127.770752 181.109009,127.772476 
	C231.764618,127.791092 282.420258,127.749870 333.075806,127.812294 
	C344.861694,127.826813 355.769806,130.914413 365.603882,138.318542 
M218.914246,347.414032 
	C228.584839,337.762665 238.651962,328.468964 247.790558,318.337708 
	C254.183426,311.250427 261.392822,308.699982 270.692749,308.881409 
	C291.680054,309.290741 312.681549,309.131348 333.675690,308.982025 
	C350.191193,308.864563 360.763611,298.175232 360.801666,281.649780 
	C360.880737,247.324448 360.936584,212.998260 360.770569,178.673538 
	C360.701202,164.330399 349.662567,153.271881 335.407715,153.240417 
	C283.086517,153.124939 230.764755,153.127792 178.443588,153.248901 
	C164.473709,153.281219 153.335083,164.415359 153.273193,178.399399 
	C153.118301,213.390518 153.119263,248.383209 153.272095,283.374359 
	C153.334778,297.724365 164.123428,308.386322 178.556961,308.943604 
	C181.885223,309.072113 185.221939,308.963684 188.553070,309.039032 
	C200.306656,309.304749 204.770035,313.745453 204.919418,325.570374 
	C205.037292,334.900055 204.916138,344.232605 204.964691,353.563507 
	C204.975311,355.605042 204.590698,357.776093 206.392685,360.532379 
	C210.627121,356.085266 214.518997,351.997925 218.914246,347.414032 
z"/>
<path fill="orangered" opacity="1.000000" stroke="none" 
	d="
M320.069336,250.541565 
	C309.118408,252.727966 300.019897,247.111145 297.679352,237.077026 
	C295.390625,227.265045 300.681427,218.364578 310.475830,215.550079 
	C319.697876,212.900055 329.301178,217.945145 332.391144,227.063248 
	C335.771942,237.039520 330.955963,246.477707 320.069336,250.541565 
z"/>
<path fill="orangered" opacity="1.000000" stroke="none" 
	d="
M209.435364,247.596298 
	C199.982834,253.188263 191.199371,252.077255 184.901367,244.755020 
	C179.232559,238.164307 179.161285,227.999161 184.737427,221.379807 
	C191.602005,213.230972 203.833694,212.542038 211.303802,219.883530 
	C219.383698,227.824341 218.709778,239.613998 209.435364,247.596298 
z"/>
<path fill="orangered" opacity="1.000000" stroke="none" 
	d="
M238.918732,235.524902 
	C238.535873,224.454178 244.304245,216.886185 254.187546,214.969788 
	C262.132660,213.429214 270.961243,218.641068 274.000488,226.666107 
	C277.514404,235.944412 272.835480,246.382172 263.568359,249.938110 
	C254.268967,253.506424 243.789612,248.959976 240.153610,239.745239 
	C239.668793,238.516571 239.380020,237.210556 238.918732,235.524902 
z"/>
</svg>