<svg width="16" height="16" viewBox="0 0 16 16" fill="none" xmlns="http://www.w3.org/2000/svg">
<circle cx="8" cy="4" r="3" fill="white"/>
<path d="M4.5 9L6.5 8H9L11 8.5L12 9L13.5 10.5L15 12.5L15.5 14.5L14.5 15.5H1.5L0.5 14.5L1 13L2 11L3.5 9.5L4.5 9Z" fill="white"/>
<path fill-rule="evenodd" clip-rule="evenodd" d="M7.9994 0C5.76033 0 3.92616 1.7826 3.92616 4.00482C3.92616 5.43313 4.68388 6.6798 5.8198 7.38833C2.63739 8.34987 0.279766 11.3429 0.00411232 14.7181C-0.0555877 15.449 0.543806 16 1.21125 16H14.7887C15.4562 16 16.0556 15.449 15.9959 14.7181C15.7202 11.3427 13.3622 8.34933 10.1794 7.38807C11.3151 6.67953 12.0727 5.43293 12.0727 4.00482C12.0727 1.7826 10.2385 0 7.9994 0ZM5.16047 4.00482C5.16047 2.48399 6.421 1.23225 7.9994 1.23225C9.5778 1.23225 10.8383 2.48399 10.8383 4.00482C10.8383 5.52567 9.5778 6.7774 7.9994 6.7774C6.421 6.7774 5.16047 5.52567 5.16047 4.00482ZM1.96724 14.7677C1.57574 14.7677 1.26591 14.4308 1.34061 14.0465C1.96077 10.8558 4.73204 8.2984 8 8.2984C11.268 8.2984 14.0393 10.8558 14.6594 14.0465C14.7341 14.4308 14.4243 14.7677 14.0328 14.7677H1.96724Z" fill="#303030"/>
</svg>
